<svg width="55" height="51" viewBox="0 0 55 51" fill="none" xmlns="http://www.w3.org/2000/svg">
<rect width="54.7778" height="51" rx="9" transform="matrix(-1 0 0 1 54.7778 0)" fill="#200F48"/>
<g clip-path="url(#clip0_2001_477)">
<path d="M37.4497 33.2393C36.1675 33.2393 35.128 32.1999 35.128 30.9176C35.128 29.6353 36.1675 28.5958 37.4497 28.5958C38.732 28.5958 39.7715 29.6353 39.7715 30.9176C39.7715 32.1999 38.732 33.2393 37.4497 33.2393Z" fill="url(#paint0_linear_2001_477)"/>
<path d="M16.554 11.5695H38.2238C40.2756 11.5719 42.2426 12.3881 43.6935 13.8389C45.1443 15.2898 45.9605 17.2568 45.963 19.3087V31.6914C45.9605 33.7432 45.1443 35.7102 43.6935 37.1611C42.2426 38.6119 40.2756 39.4281 38.2238 39.4306H16.554C14.5022 39.4281 12.5351 38.6119 11.0843 37.1611C9.63343 35.7102 8.81726 33.7432 8.8148 31.6914V19.3087C8.81726 17.2568 9.63343 15.2898 11.0843 13.8389C12.5351 12.3881 14.5022 11.5719 16.554 11.5695V11.5695ZM38.2238 14.6651H16.554C15.3225 14.6651 14.1414 15.1544 13.2705 16.0252C12.3997 16.896 11.9105 18.0771 11.9105 19.3087H42.8673C42.8673 18.0771 42.378 16.896 41.5072 16.0252C40.6364 15.1544 39.4553 14.6651 38.2238 14.6651V14.6651ZM16.554 36.3349H38.2238C39.4553 36.3349 40.6364 35.8457 41.5072 34.9748C42.378 34.104 42.8673 32.9229 42.8673 31.6914V22.4043H11.9105V31.6914C11.9105 32.9229 12.3997 34.104 13.2705 34.9748C14.1414 35.8457 15.3225 36.3349 16.554 36.3349Z" fill="url(#paint1_linear_2001_477)"/>
</g>
<defs>
<linearGradient id="paint0_linear_2001_477" x1="38.3405" y1="32.1521" x2="34.7986" y2="31.61" gradientUnits="userSpaceOnUse">
<stop stop-color="#A77DF8"/>
<stop offset="1" stop-color="#491FA7"/>
</linearGradient>
<linearGradient id="paint1_linear_2001_477" x1="34.515" y1="32.907" x2="-6.87285" y2="25.1642" gradientUnits="userSpaceOnUse">
<stop stop-color="#A77DF8"/>
<stop offset="1" stop-color="#491FA7"/>
</linearGradient>
<clipPath id="clip0_2001_477">
<rect width="37.1481" height="37.1481" fill="white" transform="matrix(-1 0 0 1 45.963 6.9259)"/>
</clipPath>
</defs>
</svg>
