<svg width="22" height="23" viewBox="0 0 22 23" fill="none" xmlns="http://www.w3.org/2000/svg">
<circle cx="10.9995" cy="11" r="10" transform="rotate(90 10.9995 11)" stroke="#908D99"/>
<path d="M16.8705 8.68363C16.7891 8.60162 16.6924 8.53652 16.5857 8.4921C16.4791 8.44768 16.3647 8.4248 16.2492 8.4248C16.1337 8.4248 16.0194 8.44768 15.9127 8.4921C15.8061 8.53652 15.7093 8.60162 15.628 8.68363L11.6205 12.6911C11.5391 12.7731 11.4424 12.8382 11.3357 12.8826C11.2291 12.9271 11.1147 12.9499 10.9992 12.9499C10.8837 12.9499 10.7694 12.9271 10.6627 12.8826C10.5561 12.8382 10.4593 12.7731 10.378 12.6911L6.37048 8.68363C6.28914 8.60162 6.19236 8.53652 6.08573 8.4921C5.97911 8.44768 5.86474 8.4248 5.74923 8.4248C5.63372 8.4248 5.51935 8.44768 5.41272 8.4921C5.3061 8.53652 5.20932 8.60162 5.12798 8.68363C4.96501 8.84757 4.87354 9.06934 4.87354 9.3005C4.87354 9.53166 4.96501 9.75343 5.12798 9.91737L9.14423 13.9336C9.63642 14.4252 10.3036 14.7013 10.9992 14.7013C11.6949 14.7013 12.362 14.4252 12.8542 13.9336L16.8705 9.91737C17.0334 9.75343 17.1249 9.53166 17.1249 9.3005C17.1249 9.06934 17.0334 8.84757 16.8705 8.68363Z" fill="#908D99"/>
</svg>
