<svg width="7" height="12" viewBox="0 0 7 12" fill="none" xmlns="http://www.w3.org/2000/svg">
<path d="M5.83318 4.23334L2.00818 0.408343C1.85205 0.253134 1.64084 0.166016 1.42068 0.166016C1.20053 0.166016 0.989319 0.253134 0.833184 0.408343C0.755077 0.485812 0.693082 0.577979 0.650774 0.679529C0.608467 0.781078 0.586685 0.89 0.586685 1.00001C0.586685 1.11002 0.608467 1.21894 0.650774 1.32049C0.693082 1.42204 0.755077 1.51421 0.833184 1.59168L4.66652 5.40834C4.74462 5.48581 4.80662 5.57798 4.84893 5.67953C4.89123 5.78108 4.91302 5.89 4.91302 6.00001C4.91302 6.11002 4.89123 6.21894 4.84893 6.32049C4.80662 6.42204 4.74462 6.51421 4.66652 6.59168L0.833184 10.4083C0.676264 10.5642 0.587668 10.7759 0.586887 10.9971C0.586106 11.2182 0.673203 11.4306 0.829018 11.5875C0.984832 11.7444 1.1966 11.833 1.41774 11.8338C1.63887 11.8346 1.85126 11.7475 2.00818 11.5917L5.83318 7.76668C6.30135 7.29793 6.56432 6.66251 6.56432 6.00001C6.56432 5.33751 6.30135 4.7021 5.83318 4.23334Z" fill="white"/>
</svg>
