<svg width="21" height="23" viewBox="0 0 21 23" fill="none" xmlns="http://www.w3.org/2000/svg">
<circle cx="10.5" cy="10.5" r="10.5" fill="#8A38F5"/>
<path d="M16.3712 9.18375C16.2898 9.10174 16.193 9.03664 16.0864 8.99222C15.9798 8.9478 15.8654 8.92493 15.7499 8.92493C15.6344 8.92493 15.52 8.9478 15.4134 8.99222C15.3068 9.03664 15.21 9.10174 15.1287 9.18375L11.1212 13.1912C11.0398 13.2733 10.943 13.3383 10.8364 13.3828C10.7298 13.4272 10.6154 13.4501 10.4999 13.4501C10.3844 13.4501 10.27 13.4272 10.1634 13.3828C10.0568 13.3383 9.95999 13.2733 9.87865 13.1912L5.87115 9.18375C5.78981 9.10174 5.69303 9.03664 5.5864 8.99222C5.47978 8.9478 5.36541 8.92493 5.2499 8.92493C5.13439 8.92493 5.02002 8.9478 4.9134 8.99222C4.80677 9.03664 4.70999 9.10174 4.62865 9.18375C4.46568 9.34769 4.37421 9.56946 4.37421 9.80062C4.37421 10.0318 4.46568 10.2536 4.62865 10.4175L8.6449 14.4337C9.13709 14.9253 9.80427 15.2014 10.4999 15.2014C11.1955 15.2014 11.8627 14.9253 12.3549 14.4337L16.3712 10.4175C16.5341 10.2536 16.6256 10.0318 16.6256 9.80062C16.6256 9.56946 16.5341 9.34769 16.3712 9.18375Z" fill="white"/>
</svg>
