<svg width="22" height="22" viewBox="0 0 22 22" fill="none" xmlns="http://www.w3.org/2000/svg">
<path d="M9.60678 17.4167C9.3663 17.4157 9.13586 17.3202 8.96512 17.1508L4.75762 12.9433C4.24263 12.4277 3.95337 11.7288 3.95337 11C3.95337 10.2713 4.24263 9.5723 4.75762 9.05667L8.96512 4.84917C9.13687 4.67844 9.3692 4.58261 9.61137 4.58261C9.85354 4.58261 10.0859 4.67844 10.2576 4.84917C10.3435 4.93439 10.4117 5.03577 10.4583 5.14748C10.5048 5.25918 10.5288 5.37899 10.5288 5.5C10.5288 5.62102 10.5048 5.74083 10.4583 5.85253C10.4117 5.96424 10.3435 6.06562 10.2576 6.15084L6.05012 10.3492C5.9642 10.4344 5.896 10.5358 5.84947 10.6475C5.80293 10.7592 5.77897 10.879 5.77897 11C5.77897 11.121 5.80293 11.2408 5.84947 11.3525C5.896 11.4642 5.9642 11.5656 6.05012 11.6508L10.2576 15.8492C10.3435 15.9344 10.4117 16.0358 10.4583 16.1475C10.5048 16.2592 10.5288 16.379 10.5288 16.5C10.5288 16.621 10.5048 16.7408 10.4583 16.8525C10.4117 16.9642 10.3435 17.0656 10.2576 17.1508C10.172 17.2358 10.0704 17.303 9.9587 17.3486C9.84701 17.3942 9.72742 17.4174 9.60678 17.4167Z" fill="#9376F0"/>
<path d="M16.0232 17.4167C15.7827 17.4157 15.5522 17.3202 15.3815 17.1508L9.8815 11.6508C9.79558 11.5656 9.72739 11.4642 9.68085 11.3525C9.63431 11.2408 9.61035 11.121 9.61035 11C9.61035 10.879 9.63431 10.7592 9.68085 10.6475C9.72739 10.5358 9.79558 10.4344 9.8815 10.3492L15.3815 4.84917C15.5532 4.67844 15.7856 4.58261 16.0277 4.58261C16.2699 4.58261 16.5022 4.67844 16.674 4.84917C16.7599 4.93439 16.8281 5.03577 16.8746 5.14748C16.9212 5.25918 16.9451 5.37899 16.9451 5.5C16.9451 5.62102 16.9212 5.74083 16.8746 5.85253C16.8281 5.96424 16.7599 6.06562 16.674 6.15084L11.8248 11L16.674 15.8492C16.7599 15.9344 16.8281 16.0358 16.8746 16.1475C16.9212 16.2592 16.9451 16.379 16.9451 16.5C16.9451 16.621 16.9212 16.7408 16.8746 16.8525C16.8281 16.9642 16.7599 17.0656 16.674 17.1508C16.5883 17.2358 16.4868 17.303 16.3751 17.3486C16.2634 17.3942 16.1438 17.4174 16.0232 17.4167Z" fill="#9376F0"/>
</svg>
