<svg width="22" height="21" viewBox="0 0 22 21" fill="none" xmlns="http://www.w3.org/2000/svg">
<circle cx="10.5" cy="10.5" r="10.5" fill="#8A38F5"/>
<path d="M8.18375 4.62891C8.10174 4.71025 8.03664 4.80703 7.99222 4.91366C7.9478 5.02028 7.92493 5.13465 7.92493 5.25016C7.92493 5.36567 7.9478 5.48004 7.99222 5.58667C8.03664 5.69329 8.10174 5.79007 8.18375 5.87141L12.1912 9.87891C12.2733 9.96025 12.3383 10.057 12.3828 10.1637C12.4272 10.2703 12.4501 10.3847 12.4501 10.5002C12.4501 10.6157 12.4272 10.73 12.3828 10.8367C12.3383 10.9433 12.2733 11.0401 12.1912 11.1214L8.18375 15.1289C8.10174 15.2103 8.03664 15.307 7.99222 15.4137C7.9478 15.5203 7.92493 15.6347 7.92493 15.7502C7.92493 15.8657 7.9478 15.98 7.99222 16.0867C8.03664 16.1933 8.10174 16.2901 8.18375 16.3714C8.34769 16.5344 8.56946 16.6259 8.80062 16.6259C9.03179 16.6259 9.25356 16.5344 9.4175 16.3714L13.4337 12.3552C13.9253 11.863 14.2014 11.1958 14.2014 10.5002C14.2014 9.80453 13.9253 9.13735 13.4337 8.64516L9.4175 4.62891C9.25355 4.46594 9.03178 4.37447 8.80062 4.37447C8.56946 4.37447 8.34769 4.46594 8.18375 4.62891Z" fill="white"/>
</svg>
