<svg width="22" height="22" viewBox="0 0 22 22" fill="none" xmlns="http://www.w3.org/2000/svg">
<path d="M12.3933 4.58333C12.6338 4.58434 12.8642 4.67981 13.035 4.84916L17.2425 9.05666C17.7574 9.57229 18.0467 10.2712 18.0467 11C18.0467 11.7287 17.7574 12.4277 17.2425 12.9433L13.035 17.1508C12.8632 17.3216 12.6309 17.4174 12.3887 17.4174C12.1465 17.4174 11.9142 17.3216 11.7425 17.1508C11.6565 17.0656 11.5883 16.9642 11.5418 16.8525C11.4953 16.7408 11.4713 16.621 11.4713 16.5C11.4713 16.379 11.4953 16.2592 11.5418 16.1475C11.5883 16.0358 11.6565 15.9344 11.7425 15.8492L15.95 11.6508C16.0359 11.5656 16.1041 11.4642 16.1506 11.3525C16.1971 11.2408 16.2211 11.121 16.2211 11C16.2211 10.879 16.1971 10.7592 16.1506 10.6475C16.1041 10.5358 16.0359 10.4344 15.95 10.3492L11.7425 6.15083C11.6565 6.06561 11.5883 5.96423 11.5418 5.85252C11.4953 5.74082 11.4713 5.62101 11.4713 5.5C11.4713 5.37899 11.4953 5.25917 11.5418 5.14747C11.5883 5.03576 11.6565 4.93438 11.7425 4.84916C11.8281 4.76421 11.9297 4.69699 12.0414 4.65137C12.1531 4.60575 12.2727 4.58263 12.3933 4.58333Z" fill="#9376F0"/>
<path d="M5.97678 4.58333C6.21726 4.58434 6.44771 4.67981 6.61845 4.84916L12.1184 10.3492C12.2044 10.4344 12.2726 10.5358 12.3191 10.6475C12.3656 10.7592 12.3896 10.879 12.3896 11C12.3896 11.121 12.3656 11.2408 12.3191 11.3525C12.2726 11.4642 12.2044 11.5656 12.1184 11.6508L6.61845 17.1508C6.4467 17.3216 6.21437 17.4174 5.9722 17.4174C5.73003 17.4174 5.4977 17.3216 5.32595 17.1508C5.24003 17.0656 5.17184 16.9642 5.1253 16.8525C5.07876 16.7408 5.0548 16.621 5.0548 16.5C5.0548 16.379 5.07876 16.2592 5.1253 16.1475C5.17184 16.0358 5.24003 15.9344 5.32595 15.8492L10.1751 11L5.32595 6.15083C5.24003 6.06561 5.17184 5.96423 5.1253 5.85252C5.07876 5.74082 5.0548 5.62101 5.0548 5.5C5.0548 5.37899 5.07876 5.25917 5.1253 5.14747C5.17184 5.03576 5.24003 4.93438 5.32595 4.84916C5.4116 4.76421 5.51318 4.69699 5.62487 4.65137C5.73655 4.60575 5.85614 4.58263 5.97678 4.58333Z" fill="#9376F0"/>
</svg>
