<svg width="55" height="51" viewBox="0 0 55 51" fill="none" xmlns="http://www.w3.org/2000/svg">
<rect width="54.7778" height="51" rx="9" transform="matrix(-1 0 0 1 54.7778 0)" fill="#3E1415"/>
<path d="M43.2083 18.6975H10.9817C10.4398 18.6975 10 19.1373 10 19.6792V39.0152C10 39.5571 10.4398 39.9969 10.9817 39.9969H43.2083C43.7502 39.9969 44.19 39.5571 44.19 39.0152V19.6792C44.19 19.1373 43.7502 18.6975 43.2083 18.6975ZM42.2266 20.6609V22.4163H11.9634V20.6609H42.2266ZM11.9634 38.0334V27.6442H42.2266V38.0334H11.9634Z" fill="#B32020"/>
<path d="M12.6689 17.4397C12.86 17.6309 13.1113 17.7277 13.3626 17.7277C13.614 17.7277 13.8653 17.6322 14.0564 17.4397C14.4399 17.0562 14.4399 16.4345 14.0564 16.0509L13.3509 15.3454H43.2069C43.7488 15.3454 44.1886 14.9056 44.1886 14.3637C44.1886 13.8218 43.7488 13.382 43.2069 13.382H13.3522L14.0577 12.6764C14.4412 12.2929 14.4412 11.6712 14.0577 11.2876C13.6742 10.9041 13.0524 10.9041 12.6689 11.2876L10.2879 13.6686C9.90436 14.0522 9.90436 14.6739 10.2879 15.0574L12.6689 17.4384V17.4397Z" fill="#B32020"/>
<path d="M17.9912 33.8882H14.1677V36.2783H17.9912V33.8882Z" fill="#B32020"/>
</svg>
