<svg width="55" height="51" viewBox="0 0 55 51" fill="none" xmlns="http://www.w3.org/2000/svg">
<rect width="54.7778" height="51" rx="9" transform="matrix(-1 0 0 1 54.7778 0)" fill="#200F48"/>
<path d="M32.2498 34.0858C32.9141 34.7501 33.7165 35.2223 34.5906 35.4803L30.1531 39.9188C28.7089 41.363 26.3474 41.3629 24.9031 39.9188L20.5516 35.5673C21.5226 35.3295 22.4152 34.8324 23.1424 34.1053L27.7059 29.5419L32.2498 34.0858Z" stroke="url(#paint0_linear_2001_488)" stroke-width="2"/>
<path d="M24.8659 13.0811C26.3102 11.6368 28.6726 11.6368 30.1169 13.0811L34.5612 17.5254C33.6988 17.7852 32.9074 18.2548 32.2507 18.9111L27.6862 23.4561L23.1237 18.8936C22.3925 18.1623 21.4937 17.6639 20.5163 17.4277L24.8659 13.0811Z" stroke="url(#paint1_linear_2001_488)" stroke-width="2"/>
<path d="M19.215 20.637C19.7723 20.637 20.3424 20.8688 20.7541 21.2805L25.4152 25.9417C25.6395 26.166 25.8902 26.3519 26.1584 26.4983C25.8817 26.6419 25.6244 26.8282 25.3967 27.0559L20.7219 31.7307C20.3396 32.1264 19.7799 32.3614 19.1965 32.3616H17.3098L14.0812 29.134C12.637 27.6898 12.637 25.3273 14.0812 23.8831L17.3273 20.637H19.215ZM36.1584 20.6555H37.6887L40.9172 23.8831C42.3613 25.3272 42.3611 27.6693 40.9142 29.1135V29.1145L37.6867 32.342H36.1545C35.5974 32.342 35.028 32.11 34.6164 31.6985L29.9738 27.0559C29.7479 26.8297 29.4922 26.6454 29.218 26.5022C29.4913 26.3554 29.7485 26.1689 29.9758 25.9417L29.9748 25.9407L34.6193 21.3L34.6262 21.2932L34.632 21.2864C35.0144 20.8904 35.5747 20.6555 36.1584 20.6555Z" stroke="url(#paint2_linear_2001_488)" stroke-width="2"/>
<defs>
<linearGradient id="paint0_linear_2001_488" x1="23.992" y1="38.8398" x2="37.8104" y2="35.9461" gradientUnits="userSpaceOnUse">
<stop stop-color="#A77DF8"/>
<stop offset="1" stop-color="#491FA7"/>
</linearGradient>
<linearGradient id="paint1_linear_2001_488" x1="23.9543" y1="21.3496" x2="37.7748" y2="18.4575" gradientUnits="userSpaceOnUse">
<stop stop-color="#A77DF8"/>
<stop offset="1" stop-color="#491FA7"/>
</linearGradient>
<linearGradient id="paint2_linear_2001_488" x1="21.5521" y1="30.1772" x2="43.206" y2="22.7507" gradientUnits="userSpaceOnUse">
<stop stop-color="#A77DF8"/>
<stop offset="1" stop-color="#491FA7"/>
</linearGradient>
</defs>
</svg>
