<svg width="30" height="30" viewBox="0 0 30 30" fill="none" xmlns="http://www.w3.org/2000/svg">
<path d="M11.25 7.5C11.25 7.99246 11.347 8.48009 11.5355 8.93506C11.7239 9.39003 12.0001 9.80343 12.3483 10.1517C12.6966 10.4999 13.11 10.7761 13.5649 10.9645C14.0199 11.153 14.5075 11.25 15 11.25C15.4925 11.25 15.9801 11.153 16.4351 10.9645C16.89 10.7761 17.3034 10.4999 17.6517 10.1516C17.9999 9.80343 18.2761 9.39003 18.4645 8.93506C18.653 8.48009 18.75 7.99246 18.75 7.5C18.75 7.00754 18.653 6.51991 18.4645 6.06494C18.2761 5.60996 17.9999 5.19657 17.6516 4.84835C17.3034 4.50013 16.89 4.22391 16.4351 4.03545C15.9801 3.847 15.4925 3.75 15 3.75C14.5075 3.75 14.0199 3.847 13.5649 4.03545C13.11 4.22391 12.6966 4.50013 12.3483 4.84835C12.0001 5.19657 11.7239 5.60997 11.5355 6.06494C11.347 6.51991 11.25 7.00755 11.25 7.5L11.25 7.5Z" stroke="white" stroke-width="2"/>
<path d="M5.54733 17.3769C5.12085 17.6231 4.74704 17.9509 4.44725 18.3416C4.14746 18.7323 3.92756 19.1782 3.80011 19.6539C3.67265 20.1296 3.64013 20.6257 3.70441 21.1139C3.76869 21.6022 3.9285 22.073 4.17473 22.4995C4.42096 22.926 4.74878 23.2998 5.13947 23.5996C5.53016 23.8993 5.97608 24.1192 6.45176 24.2467C6.92743 24.3742 7.42356 24.4067 7.9118 24.3424C8.40005 24.2781 8.87085 24.1183 9.29733 23.8721C9.72381 23.6258 10.0976 23.298 10.3974 22.9073C10.6972 22.5166 10.9171 22.0707 11.0445 21.595C11.172 21.1194 11.2045 20.6232 11.1402 20.135C11.076 19.6468 10.9161 19.176 10.6699 18.7495C10.4237 18.323 10.0959 17.9492 9.70518 17.6494C9.31449 17.3496 8.86857 17.1297 8.3929 17.0023C7.91722 16.8748 7.4211 16.8423 6.93285 16.9066C6.44461 16.9708 5.97381 17.1307 5.54732 17.3769L5.54733 17.3769Z" stroke="white" stroke-width="2"/>
<path d="M24.4527 17.3769C24.8792 17.6231 25.253 17.9509 25.5527 18.3416C25.8525 18.7323 26.0724 19.1782 26.1999 19.6539C26.3274 20.1296 26.3599 20.6257 26.2956 21.1139C26.2313 21.6022 26.0715 22.073 25.8253 22.4995C25.579 22.926 25.2512 23.2998 24.8605 23.5996C24.4698 23.8993 24.0239 24.1192 23.5482 24.2467C23.0726 24.3742 22.5764 24.4067 22.0882 24.3424C21.6 24.2781 21.1292 24.1183 20.7027 23.8721C20.2762 23.6258 19.9024 23.298 19.6026 22.9073C19.3028 22.5166 19.0829 22.0707 18.9555 21.595C18.828 21.1194 18.7955 20.6232 18.8598 20.135C18.924 19.6468 19.0839 19.176 19.3301 18.7495C19.5763 18.323 19.9041 17.9492 20.2948 17.6494C20.6855 17.3496 21.1314 17.1297 21.6071 17.0023C22.0828 16.8748 22.5789 16.8423 23.0671 16.9066C23.5554 16.9708 24.0262 17.1307 24.4527 17.3769L24.4527 17.3769Z" stroke="white" stroke-width="2"/>
<path d="M20.2451 23.5605C20.3895 23.6753 20.5427 23.7794 20.7031 23.8721C21.1295 24.1182 21.5998 24.2785 22.0879 24.3428C22.1975 24.3572 22.3079 24.3654 22.418 24.3701C21.4758 25.231 20.3913 25.9237 19.21 26.4131C17.8754 26.9659 16.4445 27.25 15 27.25C13.5555 27.25 12.1246 26.9659 10.79 26.4131C9.60843 25.9236 8.52339 25.2312 7.58105 24.3701C7.69142 24.3654 7.80222 24.3572 7.91211 24.3428C8.40017 24.2785 8.87054 24.1182 9.29688 23.8721C9.45713 23.7795 9.60966 23.6751 9.75391 23.5605C10.3132 23.9617 10.9168 24.2998 11.5557 24.5645C12.6476 25.0167 13.8181 25.25 15 25.25C16.1819 25.25 17.3524 25.0167 18.4443 24.5645C19.0829 24.2999 19.686 23.9615 20.2451 23.5605ZM11.6758 5.76758C11.6251 5.86478 11.5772 5.96382 11.5352 6.06543C11.3468 6.52024 11.25 7.00773 11.25 7.5C11.25 7.68531 11.2638 7.87028 11.291 8.05273C10.3037 8.49932 9.4031 9.11843 8.63574 9.88574C7.80018 10.7213 7.13783 11.714 6.68555 12.8057C6.28982 13.761 6.0615 14.777 6.01074 15.8076L6 16.25C6 16.5455 6.015 16.8407 6.04395 17.1338V17.1367C5.873 17.2043 5.70677 17.2846 5.54688 17.377C5.12051 17.6231 4.74701 17.9512 4.44727 18.3418C4.38043 18.4289 4.31754 18.519 4.25879 18.6113C4.08886 17.8375 4 17.0459 4 16.25C4.00005 14.8056 4.28416 13.3745 4.83691 12.04C5.38971 10.7057 6.20038 9.49298 7.22168 8.47168C8.24303 7.45038 9.45563 6.63968 10.79 6.08691C11.0806 5.96655 11.3769 5.86231 11.6758 5.76758ZM18.3232 5.76758C18.6224 5.86237 18.9191 5.96643 19.21 6.08691C20.5444 6.63968 21.757 7.45038 22.7783 8.47168C23.7996 9.49298 24.6103 10.7057 25.1631 12.04C25.7158 13.3745 26 14.8056 26 16.25C26 17.046 25.9102 17.8375 25.7402 18.6113C25.6815 18.5192 25.6195 18.4288 25.5527 18.3418C25.253 17.9512 24.8795 17.6231 24.4531 17.377C24.2929 17.2845 24.1264 17.2034 23.9551 17.1357C23.9842 16.842 24 16.5462 24 16.25C24 15.0682 23.7667 13.8975 23.3145 12.8057C22.8622 11.714 22.1998 10.7213 21.3643 9.88574C20.5967 9.11822 19.6956 8.49935 18.708 8.05273C18.7352 7.87024 18.75 7.68535 18.75 7.5C18.75 7.00776 18.6532 6.52022 18.4648 6.06543C18.4227 5.9637 18.374 5.86489 18.3232 5.76758Z" fill="white"/>
</svg>
