<svg width="24" height="25" viewBox="0 0 24 25" fill="none" xmlns="http://www.w3.org/2000/svg">
<path d="M16.25 11.375V9.138H17.489C17.6548 9.138 17.8137 9.07215 17.9309 8.95494C18.0482 8.83773 18.114 8.67876 18.114 8.513C18.114 8.34724 18.0482 8.18827 17.9309 8.07106C17.8137 7.95385 17.6548 7.888 17.489 7.888H16.25V6.75H17.638C17.8038 6.75 17.9627 6.68415 18.0799 6.56694C18.1972 6.44973 18.263 6.29076 18.263 6.125C18.263 5.95924 18.1972 5.80027 18.0799 5.68306C17.9627 5.56585 17.8038 5.5 17.638 5.5H15.625C15.4592 5.5 15.3003 5.56585 15.1831 5.68306C15.0658 5.80027 15 5.95924 15 6.125V11.375C15 11.5408 15.0658 11.6997 15.1831 11.8169C15.3003 11.9342 15.4592 12 15.625 12C15.7908 12 15.9497 11.9342 16.0669 11.8169C16.1842 11.6997 16.25 11.5408 16.25 11.375Z" fill="#908D99"/>
<g clip-path="url(#clip0_5265_2419)">
<path d="M19 0.5H5.00002C2.23997 0.503328 0.00332812 2.73997 0 5.50002V19.5C0.00332812 22.26 2.23997 24.4967 5.00002 24.5H16.343C17.6699 24.5038 18.9432 23.9766 19.879 23.036L22.535 20.378C23.4757 19.4426 24.0033 18.1697 24 16.843V5.50002C23.9967 2.73997 21.76 0.503328 19 0.5ZM2.00002 19.5V5.50002C2.00002 3.84317 3.34317 2.50002 5.00002 2.50002H19C20.6569 2.50002 22 3.84317 22 5.50002V15.5H18C16.3432 15.5 15 16.8432 15 18.5V22.5H5.00002C3.34312 22.5 2.00002 21.1569 2.00002 19.5ZM18.465 21.622C18.063 22.023 17.5547 22.3006 17 22.422V18.5C17 17.9477 17.4477 17.5 18 17.5H21.925C21.8013 18.0535 21.524 18.5609 21.125 18.964L18.465 21.622Z" fill="#908D99"/>
</g>
<path d="M4 6.12494V11.3869C4 11.7321 4.27984 12.0119 4.62499 12.0119C4.97013 12.0119 5.24997 11.7321 5.24997 11.3869V9.72395H6.08997C7.25529 9.72395 8.19996 8.77928 8.19996 7.61397C8.19996 6.44866 7.25529 5.50398 6.08997 5.50398L6.08397 5.5H4.61899C4.57656 5.50075 4.35288 5.50895 4.17602 5.69242C4.00684 5.86792 4.00033 6.0797 4 6.12494ZM6.08397 8.46995H5.25199L5.24599 6.74997H6.08397C6.55896 6.74973 6.94418 7.13458 6.94441 7.60956C6.94465 8.08455 6.5598 8.46977 6.08482 8.47C6.08458 8.46995 6.08425 8.46995 6.08397 8.46995Z" fill="#908D99"/>
<path d="M9.01102 11.3121C9.01214 11.6564 9.29161 11.9351 9.636 11.9351C9.636 11.9351 10.708 11.9351 11.122 11.9231C12.654 11.8971 13.754 10.5651 13.754 8.75709C13.754 6.8571 12.674 5.5791 11.068 5.5791H9.62498C9.27947 5.58023 9 5.86059 9 6.2061L9.01102 11.3121ZM11.072 6.82902C12.131 6.82902 12.508 7.82901 12.508 8.75704C12.508 9.68507 12.074 10.657 11.103 10.6731C10.903 10.6731 10.5651 10.68 10.2591 10.6821L10.254 6.82907L11.072 6.82902Z" fill="#908D99"/>
<defs>
<clipPath id="clip0_5265_2419">
<rect width="24" height="24" fill="white" transform="translate(0 0.5)"/>
</clipPath>
</defs>
</svg>
