<svg width="54" height="54" viewBox="0 0 54 54" fill="none" xmlns="http://www.w3.org/2000/svg">
<g clip-path="url(#clip0_4335_197)">
<path d="M27 0C21.6599 0 16.4397 1.58352 11.9996 4.55032C7.55949 7.51712 4.09883 11.7339 2.05526 16.6675C0.0116987 21.6012 -0.522991 27.03 0.51881 32.2674C1.56061 37.5049 4.13211 42.3159 7.90813 46.0919C11.6841 49.8679 16.4951 52.4394 21.7326 53.4812C26.9701 54.523 32.3989 53.9883 37.3325 51.9447C42.2661 49.9012 46.4829 46.4405 49.4497 42.0004C52.4165 37.5603 54 32.3401 54 27C53.9923 19.8415 51.1451 12.9785 46.0833 7.91667C41.0215 2.85486 34.1585 0.00774243 27 0V0ZM27 49.5C22.5499 49.5 18.1998 48.1804 14.4997 45.7081C10.7996 43.2357 7.91569 39.7217 6.21272 35.6104C4.50975 31.499 4.06418 26.975 4.93234 22.6105C5.80051 18.2459 7.94343 14.2368 11.0901 11.0901C14.2368 7.94342 18.2459 5.8005 22.6105 4.93233C26.9751 4.06416 31.4991 4.50974 35.6104 6.21271C39.7217 7.91568 43.2357 10.7996 45.7081 14.4997C48.1804 18.1998 49.5 22.5499 49.5 27C49.4935 32.9654 47.1208 38.6845 42.9027 42.9027C38.6845 47.1208 32.9654 49.4935 27 49.5Z" fill="#1B1B1B"/>
<path d="M27.0004 11.2505C26.4036 11.2505 25.8313 11.4875 25.4094 11.9095C24.9874 12.3315 24.7504 12.9038 24.7504 13.5005V31.5005C24.7504 32.0972 24.9874 32.6695 25.4094 33.0915C25.8313 33.5134 26.4036 33.7505 27.0004 33.7505C27.5971 33.7505 28.1694 33.5134 28.5914 33.0915C29.0133 32.6695 29.2504 32.0972 29.2504 31.5005V13.5005C29.2504 12.9038 29.0133 12.3315 28.5914 11.9095C28.1694 11.4875 27.5971 11.2505 27.0004 11.2505Z" fill="#1B1B1B"/>
<path d="M29.2504 40.5005C29.2504 39.2579 28.243 38.2505 27.0004 38.2505C25.7577 38.2505 24.7504 39.2579 24.7504 40.5005C24.7504 41.7431 25.7577 42.7505 27.0004 42.7505C28.243 42.7505 29.2504 41.7431 29.2504 40.5005Z" fill="#1B1B1B"/>
</g>
<defs>
<clipPath id="clip0_4335_197">
<rect width="54" height="54" fill="white"/>
</clipPath>
</defs>
</svg>
