<svg width="52" height="51" viewBox="0 0 52 51" fill="none" xmlns="http://www.w3.org/2000/svg">
<g clip-path="url(#clip0_4312_1012)">
<path d="M51.581 21.25V40.375C51.5776 43.1919 50.4634 45.8924 48.4827 47.8843C46.502 49.8761 43.8165 50.9966 41.0154 51H11.4316C8.63041 50.9966 5.94495 49.8761 3.96423 47.8843C1.98352 45.8924 0.869276 43.1919 0.865921 40.375L0.865921 17C0.869276 14.1831 1.98352 11.4826 3.96423 9.49072C5.94495 7.49887 8.63041 6.37837 11.4316 6.375H28.3366C28.897 6.375 29.4345 6.59888 29.8308 6.9974C30.2271 7.39591 30.4497 7.93641 30.4497 8.5C30.4497 9.06359 30.2271 9.60409 29.8308 10.0026C29.4345 10.4011 28.897 10.625 28.3366 10.625H11.4316C10.2825 10.6282 9.15598 10.9465 8.17337 11.5456C7.19075 12.1447 6.38921 13.0019 5.85502 14.025L21.7394 30.0007C22.9306 31.193 24.5428 31.8624 26.2235 31.8624C27.9041 31.8624 29.5163 31.193 30.7075 30.0007L38.7818 21.8875C39.1803 21.5004 39.7141 21.2862 40.2682 21.2911C40.8222 21.2959 41.3522 21.5194 41.744 21.9134C42.1358 22.3074 42.358 22.8404 42.3629 23.3975C42.3677 23.9547 42.1547 24.4915 41.7697 24.8923L33.6955 33.014C31.7118 35.003 29.0248 36.12 26.2235 36.12C23.4222 36.12 20.7352 35.003 18.7514 33.014L5.09218 19.2759V40.375C5.09218 42.0658 5.76008 43.6873 6.94894 44.8828C8.13781 46.0784 9.75025 46.75 11.4316 46.75H41.0154C42.6967 46.75 44.3091 46.0784 45.498 44.8828C46.6868 43.6873 47.3547 42.0658 47.3547 40.375V21.25C47.3547 20.6864 47.5774 20.1459 47.9737 19.7474C48.37 19.3489 48.9074 19.125 49.4679 19.125C50.0283 19.125 50.5658 19.3489 50.9621 19.7474C51.3584 20.1459 51.581 20.6864 51.581 21.25ZM36.7891 10.625H41.0154V14.875C41.0154 15.4386 41.238 15.9791 41.6343 16.3776C42.0306 16.7761 42.5681 17 43.1285 17C43.6889 17 44.2264 16.7761 44.6227 16.3776C45.019 15.9791 45.2416 15.4386 45.2416 14.875V10.625H49.4679C50.0283 10.625 50.5658 10.4011 50.9621 10.0026C51.3584 9.60409 51.581 9.06359 51.581 8.5C51.581 7.93641 51.3584 7.39591 50.9621 6.9974C50.5658 6.59888 50.0283 6.375 49.4679 6.375H45.2416V2.125C45.2416 1.56141 45.019 1.02091 44.6227 0.622398C44.2264 0.223883 43.6889 0 43.1285 0C42.5681 0 42.0306 0.223883 41.6343 0.622398C41.238 1.02091 41.0154 1.56141 41.0154 2.125V6.375H36.7891C36.2287 6.375 35.6912 6.59888 35.2949 6.9974C34.8986 7.39591 34.676 7.93641 34.676 8.5C34.676 9.06359 34.8986 9.60409 35.2949 10.0026C35.6912 10.4011 36.2287 10.625 36.7891 10.625Z" fill="#1B1B1B"/>
</g>
<defs>
<clipPath id="clip0_4312_1012">
<rect width="50.7151" height="51" fill="white" transform="translate(0.865921)"/>
</clipPath>
</defs>
</svg>
