<svg width="24" height="24" viewBox="0 0 24 24" fill="none" xmlns="http://www.w3.org/2000/svg">
<path d="M12.208 8.32799C11.292 8.25099 10.42 8.65399 9.538 9.53699C7.904 11.172 7.904 12.829 9.538 14.462C10.019 14.944 10.777 15.604 11.792 15.672C12.758 15.736 13.646 15.28 14.462 14.462C16.096 12.828 16.095 11.17 14.462 9.53699C13.981 9.05499 13.223 8.40499 12.208 8.32699V8.32799ZM13.048 13.049C12.746 13.351 12.281 13.704 11.946 13.678C11.684 13.658 11.35 13.446 10.953 13.049C10.166 12.262 10.056 11.849 10.953 10.951C11.244 10.66 11.659 10.321 12.014 10.321C12.028 10.321 12.042 10.321 12.055 10.322C12.317 10.342 12.651 10.554 13.048 10.951C13.835 11.738 13.945 12.151 13.048 13.049Z" fill="white"/>
<path d="M22.9939 11.954C22.9999 10.748 22.5419 9.29201 20.4229 8.90401C20.3129 8.69401 20.1919 8.48301 20.0589 8.27101C21.1269 6.79201 21.0449 5.42001 19.8109 4.18601C18.5759 2.95001 17.2039 2.86901 15.7239 3.94101C15.5149 3.80901 15.3059 3.68901 15.0969 3.58101C14.7149 1.46901 13.2729 1.00101 12.0699 1.00101C10.3799 1.00101 9.29892 1.89201 8.98392 3.62501C8.77592 3.73401 8.56592 3.85501 8.35492 3.98701C6.88192 2.92301 5.50892 3.01401 4.26192 4.25901C3.01892 5.50301 2.92892 6.87701 3.98992 8.35001C3.85692 8.56201 3.73492 8.77301 3.62392 8.98301C1.89492 9.29901 1.01492 10.328 1.00592 12.046C0.999917 13.252 1.45792 14.708 3.57692 15.096C3.68692 15.306 3.80792 15.517 3.94192 15.729C2.87292 17.208 2.95492 18.58 4.18892 19.814C5.42392 21.05 6.79692 21.131 8.27592 20.059C8.48492 20.191 8.69392 20.311 8.90292 20.419C9.28492 22.531 10.7269 22.999 11.9299 22.999C13.6509 22.999 14.7009 22.108 15.0159 20.375C15.2239 20.266 15.4339 20.145 15.6449 20.013C17.1159 21.074 18.4849 20.981 19.7369 19.741C20.9889 18.501 21.0709 17.123 20.0099 15.649C20.1429 15.437 20.2649 15.226 20.3759 15.017C22.1049 14.701 22.9849 13.672 22.9939 11.954ZM19.6249 13.101C19.2609 13.132 18.9429 13.36 18.7959 13.694C18.5949 14.15 18.3129 14.628 17.9569 15.113C17.6749 15.498 17.7049 16.03 18.0279 16.382C19.1009 17.548 18.7409 17.909 18.3229 18.327C17.8879 18.763 17.5429 19.107 16.3799 18.031C16.0279 17.707 15.4969 17.677 15.1099 17.959C14.6269 18.313 14.1509 18.594 13.6939 18.793C13.3589 18.94 13.1309 19.258 13.0989 19.624C12.9809 20.994 12.4989 20.997 11.9419 20.999C11.3769 20.999 10.9239 21.005 10.8199 19.673C10.7909 19.302 10.5589 18.978 10.2169 18.832C9.76292 18.637 9.28992 18.36 8.81192 18.007C8.63492 17.876 8.42592 17.812 8.21792 17.812C7.97392 17.812 7.73092 17.901 7.53992 18.077C6.36092 19.164 6.00792 18.809 5.60092 18.401C5.19192 17.992 4.83892 17.638 5.92292 16.461C6.24792 16.108 6.27692 15.575 5.99092 15.189C5.63492 14.708 5.35592 14.234 5.16092 13.782C5.01492 13.441 4.69092 13.209 4.32192 13.18C2.99692 13.074 2.99892 12.625 3.00192 12.057C3.00492 11.476 3.00692 11.017 4.37092 10.899C4.73492 10.868 5.05292 10.64 5.19992 10.306C5.40192 9.84901 5.68392 9.37101 6.03892 8.88601C6.32092 8.50101 6.29092 7.96901 5.96792 7.61701C4.89492 6.45201 5.25592 6.09101 5.67292 5.67301C6.10792 5.23801 6.45292 4.89401 7.61592 5.96801C7.96792 6.29301 8.49892 6.32201 8.88492 6.04001C9.36892 5.68601 9.84492 5.40601 10.3019 5.20601C10.6369 5.05901 10.8649 4.74101 10.8969 4.37501C11.0149 3.00501 11.4969 3.00201 12.0539 3.00001C12.6269 3.00401 13.0719 2.99401 13.1759 4.32601C13.2049 4.69701 13.4369 5.02101 13.7789 5.16701C14.2329 5.36201 14.7059 5.63901 15.1839 5.99201C15.5689 6.27601 16.1029 6.24701 16.4549 5.92301C17.6339 4.83601 17.9859 5.19101 18.3939 5.59901C18.8029 6.00801 19.1569 6.36201 18.0719 7.53901C17.7469 7.89201 17.7179 8.42601 18.0029 8.81101C18.3589 9.29201 18.6379 9.76601 18.8329 10.218C18.9789 10.559 19.3029 10.791 19.6719 10.82C20.9969 10.926 20.9949 11.375 20.9919 11.943C20.9889 12.524 20.9869 12.983 19.6229 13.101H19.6249Z" fill="white"/>
</svg>
