<svg width="9" height="12" viewBox="0 0 9 12" fill="none" xmlns="http://www.w3.org/2000/svg">
<path d="M4.12222 12V0H5.03333V12H4.12222ZM6.53889 3.96094C6.49444 3.58281 6.3037 3.28906 5.96667 3.07969C5.62963 2.87031 5.17222 2.76562 4.59444 2.76562C4.20185 2.76562 3.87037 2.8125 3.6 2.90625C3.32963 2.99688 3.12222 3.12344 2.97778 3.28594C2.83704 3.44844 2.76667 3.63281 2.76667 3.83906C2.75926 4.01094 2.80185 4.16094 2.89444 4.28906C2.99074 4.41719 3.12222 4.52813 3.28889 4.62187C3.45556 4.7125 3.64815 4.79219 3.86667 4.86094C4.08519 4.92656 4.31852 4.98281 4.56667 5.02969L5.58889 5.23594C6.08519 5.32969 6.54074 5.45469 6.95556 5.61094C7.37037 5.76719 7.72963 5.95938 8.03333 6.1875C8.33704 6.41563 8.57222 6.68437 8.73889 6.99375C8.90926 7.30312 8.9963 7.65781 9 8.05781C8.9963 8.64531 8.81852 9.15469 8.46667 9.58594C8.11852 10.0141 7.61481 10.3469 6.95556 10.5844C6.3 10.8187 5.50926 10.9359 4.58333 10.9359C3.66481 10.9359 2.86481 10.8172 2.18333 10.5797C1.50556 10.3422 0.975926 9.99062 0.594445 9.525C0.216667 9.05625 0.0185185 8.47656 0 7.78594H2.32778C2.3537 8.10781 2.46296 8.37656 2.65556 8.59219C2.85185 8.80469 3.11296 8.96562 3.43889 9.075C3.76852 9.18125 4.14074 9.23437 4.55555 9.23437C4.96296 9.23437 5.31667 9.18437 5.61667 9.08437C5.92037 8.98437 6.15556 8.84531 6.32222 8.66719C6.48889 8.48906 6.57222 8.28438 6.57222 8.05313C6.57222 7.8375 6.4963 7.65625 6.34444 7.50938C6.1963 7.3625 5.97778 7.2375 5.68889 7.13438C5.4037 7.03125 5.0537 6.9375 4.63889 6.85312L3.4 6.59063C2.44074 6.39375 1.68333 6.08594 1.12778 5.66719C0.572222 5.24844 0.296296 4.68437 0.3 3.975C0.296296 3.39375 0.47963 2.88594 0.85 2.45156C1.22407 2.01719 1.73704 1.67813 2.38889 1.43438C3.04074 1.19063 3.78148 1.06875 4.61111 1.06875C5.45556 1.06875 6.19259 1.19063 6.82222 1.43438C7.45556 1.67813 7.94815 2.01719 8.3 2.45156C8.65185 2.88594 8.83333 3.38906 8.84444 3.96094H6.53889Z" fill="url(#paint0_linear_4569_1206)"/>
<defs>
<linearGradient id="paint0_linear_4569_1206" x1="2.77353" y1="9.19024" x2="9.70783" y2="8.39423" gradientUnits="userSpaceOnUse">
<stop stop-color="#D099F7"/>
<stop offset="1" stop-color="#A05DDB"/>
</linearGradient>
</defs>
</svg>
