<svg width="23" height="23" viewBox="0 0 23 23" fill="none" xmlns="http://www.w3.org/2000/svg">
<path d="M11.5 0.0306396C5.43442 0.0306396 0.5 4.96506 0.5 11.0306C0.5 17.0962 5.43442 22.0306 11.5 22.0306C17.5656 22.0306 22.5 17.0962 22.5 11.0306C22.5 4.96506 17.5656 0.0306396 11.5 0.0306396ZM11.5 20.1973C6.4455 20.1973 2.33333 16.0851 2.33333 11.0306C2.33333 5.97614 6.4455 1.86397 11.5 1.86397C16.5545 1.86397 20.6667 5.97614 20.6667 11.0306C20.6667 16.0851 16.5545 20.1973 11.5 20.1973ZM15.1667 12.864C15.1667 14.3801 13.9328 15.614 12.4167 15.614V16.5306C12.4167 17.0376 12.0069 17.4473 11.5 17.4473C10.9931 17.4473 10.5833 17.0376 10.5833 16.5306V15.614H10.3377C9.35958 15.614 8.44658 15.0878 7.95617 14.2399C7.70225 13.8008 7.85258 13.2407 8.28983 12.9877C8.72892 12.732 9.28992 12.8841 9.542 13.3214C9.70608 13.6056 10.0104 13.7806 10.3368 13.7806H12.4157C12.9218 13.7806 13.3324 13.37 13.3324 12.864C13.3324 12.5175 13.084 12.2241 12.7421 12.1673L9.9545 11.7026C8.72433 11.4981 7.83242 10.444 7.83242 9.19731C7.83242 7.68114 9.06625 6.44731 10.5824 6.44731V5.53064C10.5824 5.02464 10.9922 4.61397 11.4991 4.61397C12.006 4.61397 12.4157 5.02464 12.4157 5.53064V6.44731H12.6614C13.6395 6.44731 14.5525 6.97439 15.0429 7.82231C15.2968 8.26047 15.1465 8.82056 14.7093 9.07447C14.2693 9.32839 13.7092 9.17806 13.4571 8.73989C13.293 8.45664 12.9887 8.28156 12.6623 8.28156H10.5833C10.0773 8.28156 9.66667 8.69314 9.66667 9.19822C9.66667 9.54472 9.91508 9.83806 10.257 9.89489L13.0446 10.3596C14.2748 10.5641 15.1667 11.6182 15.1667 12.8649V12.864Z" fill="white"/>
</svg>
