<svg width="16" height="15" viewBox="0 0 16 15" fill="none" xmlns="http://www.w3.org/2000/svg">
<path d="M14.2003 3.25725L4.20061 13.2569L2.68555 11.7418L12.6852 1.74219L14.2003 3.25725Z" fill="url(#paint0_linear_18_827)"/>
<path d="M5.6755 4.68701C5.6755 4.31718 5.37569 4.01737 5.00586 4.01737C4.63603 4.01737 4.33622 4.31718 4.33622 4.68701C4.33622 5.05685 4.63603 5.35665 5.00586 5.35665L5.00586 7.49951C3.45256 7.49951 2.19336 6.24031 2.19336 4.68701C2.19336 3.13371 3.45256 1.87451 5.00586 1.87451C6.55916 1.87451 7.81836 3.13371 7.81836 4.68701C7.81836 6.24031 6.55916 7.49951 5.00586 7.49951L5.00586 5.35665C5.37569 5.35665 5.6755 5.05685 5.6755 4.68701Z" fill="url(#paint1_linear_18_827)"/>
<path d="M12.5505 10.312C12.5505 9.94218 12.2507 9.64237 11.8809 9.64237C11.511 9.64237 11.2112 9.94218 11.2112 10.312C11.2112 10.6818 11.511 10.9817 11.8809 10.9817L11.8809 13.1245C10.3276 13.1245 9.06836 11.8653 9.06836 10.312C9.06836 8.75871 10.3276 7.49951 11.8809 7.49951C13.4342 7.49951 14.6934 8.75871 14.6934 10.312C14.6934 11.8653 13.4342 13.1245 11.8809 13.1245L11.8809 10.9817C12.2507 10.9817 12.5505 10.6818 12.5505 10.312Z" fill="url(#paint2_linear_18_827)"/>
<defs>
<linearGradient id="paint0_linear_18_827" x1="8.44291" y1="1.74219" x2="8.44291" y2="13.2569" gradientUnits="userSpaceOnUse">
<stop stop-color="#CF98F6"/>
<stop offset="1" stop-color="#A968E1"/>
</linearGradient>
<linearGradient id="paint1_linear_18_827" x1="5.00586" y1="1.87451" x2="5.00586" y2="7.49951" gradientUnits="userSpaceOnUse">
<stop stop-color="#CF98F6"/>
<stop offset="1" stop-color="#A968E1"/>
</linearGradient>
<linearGradient id="paint2_linear_18_827" x1="11.8809" y1="7.49951" x2="11.8809" y2="13.1245" gradientUnits="userSpaceOnUse">
<stop stop-color="#CF98F6"/>
<stop offset="1" stop-color="#A968E1"/>
</linearGradient>
</defs>
</svg>
