<svg width="22" height="22" viewBox="0 0 22 22" fill="none" xmlns="http://www.w3.org/2000/svg">
<path d="M3.66739 6.40621C3.30599 6.40715 2.948 6.33643 2.61411 6.19812C2.28023 6.05982 1.97708 5.85668 1.72222 5.60046L0.306885 4.34096C0.125278 4.17904 0.0154296 3.95162 0.001505 3.70871C-0.0124196 3.4658 0.0707204 3.22731 0.232635 3.04571C0.39455 2.8641 0.621976 2.75425 0.864882 2.74033C1.10779 2.7264 1.34628 2.80954 1.52789 2.97146L2.9808 4.26762C3.06398 4.36103 3.16539 4.43642 3.27879 4.48917C3.39219 4.54192 3.51519 4.5709 3.64021 4.57434C3.76524 4.57777 3.88964 4.55558 4.00577 4.50914C4.12189 4.4627 4.22729 4.39299 4.31547 4.30429L7.61914 1.15921C7.79678 1.00105 8.02894 0.91814 8.26658 0.927978C8.50422 0.937816 8.72873 1.03963 8.8927 1.21193C9.05666 1.38422 9.14724 1.6135 9.1453 1.85134C9.14336 2.08917 9.04906 2.31694 8.8823 2.48654L5.59239 5.61604C5.33918 5.86777 5.03883 6.06713 4.70853 6.20271C4.37822 6.33829 4.02443 6.40744 3.66739 6.40621V6.40621ZM22.0007 4.57287C22.0007 4.32976 21.9041 4.0966 21.7322 3.92469C21.5603 3.75278 21.3272 3.65621 21.0841 3.65621H11.9174C11.6743 3.65621 11.4411 3.75278 11.2692 3.92469C11.0973 4.0966 11.0007 4.32976 11.0007 4.57287C11.0007 4.81599 11.0973 5.04915 11.2692 5.22105C11.4411 5.39296 11.6743 5.48954 11.9174 5.48954H21.0841C21.3272 5.48954 21.5603 5.39296 21.7322 5.22105C21.9041 5.04915 22.0007 4.81599 22.0007 4.57287ZM5.59239 12.9494L8.8823 9.81987C8.97413 9.73812 9.04857 9.63874 9.1012 9.52763C9.15383 9.41653 9.18357 9.29597 9.18865 9.17313C9.19374 9.0503 9.17406 8.92769 9.1308 8.81262C9.08753 8.69754 9.02156 8.59234 8.9368 8.50329C8.85205 8.41423 8.75025 8.34313 8.63746 8.29422C8.52466 8.24531 8.40319 8.21958 8.28025 8.21858C8.15731 8.21758 8.03543 8.24132 7.92185 8.28838C7.80828 8.33545 7.70533 8.40487 7.61914 8.49254L4.31914 11.6376C4.14463 11.8045 3.91249 11.8976 3.67105 11.8976C3.42961 11.8976 3.19747 11.8045 3.02297 11.6376L1.56547 10.1847C1.39258 10.0177 1.16103 9.92533 0.920684 9.92742C0.680337 9.92951 0.450425 10.0259 0.280468 10.1959C0.110511 10.3658 0.0141057 10.5957 0.0120172 10.8361C0.00992864 11.0764 0.102324 11.308 0.269302 11.4809L1.72222 12.9338C2.23525 13.4469 2.93031 13.7365 3.65593 13.7394C4.38154 13.7424 5.07891 13.4584 5.59605 12.9494H5.59239ZM22.0007 11.9062C22.0007 11.6631 21.9041 11.4299 21.7322 11.258C21.5603 11.0861 21.3272 10.9895 21.0841 10.9895H11.9174C11.6743 10.9895 11.4411 11.0861 11.2692 11.258C11.0973 11.4299 11.0007 11.6631 11.0007 11.9062C11.0007 12.1493 11.0973 12.3825 11.2692 12.5544C11.4411 12.7263 11.6743 12.8229 11.9174 12.8229H21.0841C21.3272 12.8229 21.5603 12.7263 21.7322 12.5544C21.9041 12.3825 22.0007 12.1493 22.0007 11.9062ZM5.59239 20.2827L8.87864 17.1532C8.97046 17.0715 9.0449 16.9721 9.09753 16.861C9.15016 16.7499 9.1799 16.6293 9.18499 16.5065C9.19007 16.3836 9.1704 16.261 9.12713 16.146C9.08386 16.0309 9.01789 15.9257 8.93314 15.8366C8.84839 15.7476 8.74658 15.6765 8.63379 15.6276C8.521 15.5786 8.39952 15.5529 8.27658 15.5519C8.15364 15.5509 8.03176 15.5747 7.91819 15.6217C7.80461 15.6688 7.70166 15.7382 7.61547 15.8259L4.31547 18.971C4.22729 19.0597 4.12189 19.1294 4.00577 19.1758C3.88964 19.2223 3.76524 19.2444 3.64021 19.241C3.51519 19.2376 3.39219 19.2086 3.27879 19.1558C3.16539 19.1031 3.06398 19.0277 2.9808 18.9343L1.52789 17.6381C1.34628 17.4762 1.10779 17.3931 0.864882 17.407C0.621976 17.4209 0.39455 17.5308 0.232635 17.7124C0.0707204 17.894 -0.0124196 18.1325 0.001505 18.3754C0.0154296 18.6183 0.125278 18.8457 0.306885 19.0076L1.72222 20.2671C2.23525 20.7803 2.93031 21.0699 3.65593 21.0728C4.38154 21.0757 5.07891 20.7917 5.59605 20.2827H5.59239ZM22.0007 19.2395C22.0007 18.9964 21.9041 18.7633 21.7322 18.5914C21.5603 18.4194 21.3272 18.3229 21.0841 18.3229H11.9174C11.6743 18.3229 11.4411 18.4194 11.2692 18.5914C11.0973 18.7633 11.0007 18.9964 11.0007 19.2395C11.0007 19.4827 11.0973 19.7158 11.2692 19.8877C11.4411 20.0596 11.6743 20.1562 11.9174 20.1562H21.0841C21.3272 20.1562 21.5603 20.0596 21.7322 19.8877C21.9041 19.7158 22.0007 19.4827 22.0007 19.2395Z" fill="url(#paint0_linear_2032_1472)"/>
<defs>
<linearGradient id="paint0_linear_2032_1472" x1="6.77997" y1="16.3558" x2="23.4876" y2="13.5631" gradientUnits="userSpaceOnUse">
<stop stop-color="#D099F7"/>
<stop offset="1" stop-color="#A05DDB"/>
</linearGradient>
</defs>
</svg>
