<svg width="13" height="13" viewBox="0 0 13 13" fill="none" xmlns="http://www.w3.org/2000/svg">
<g clip-path="url(#clip0_5140_1461)">
<path d="M7.58342 13C7.46622 13 7.35218 12.962 7.25842 12.8917L5.09176 11.2667C5.02448 11.2162 4.96988 11.1508 4.93228 11.0756C4.89467 11.0004 4.87509 10.9174 4.87509 10.8333V7.78917L1.07476 3.51379C0.804856 3.20931 0.62863 2.83336 0.567259 2.43113C0.505889 2.0289 0.561986 1.6175 0.728808 1.24638C0.89563 0.875266 1.16608 0.560224 1.50765 0.339119C1.84922 0.118014 2.24737 0.000256977 2.65426 0L10.3459 0C10.7528 0.000477236 11.1508 0.11843 11.4923 0.339683C11.8337 0.560936 12.104 0.876076 12.2706 1.24723C12.4373 1.61839 12.4932 2.02977 12.4317 2.43195C12.3701 2.83412 12.1938 3.20997 11.9238 3.51433L8.12509 7.78917V12.4583C8.12509 12.602 8.06802 12.7398 7.96644 12.8414C7.86486 12.9429 7.72708 13 7.58342 13ZM5.95842 10.5625L7.04176 11.375V7.58333C7.04187 7.45071 7.09063 7.32274 7.1788 7.22367L11.1156 2.79446C11.2469 2.64609 11.3326 2.46298 11.3623 2.26712C11.3921 2.07126 11.3647 1.87097 11.2834 1.6903C11.2022 1.50963 11.0705 1.35626 10.9042 1.24859C10.7379 1.14092 10.544 1.08354 10.3459 1.08333H2.65426C2.45625 1.08363 2.26254 1.14105 2.09634 1.24869C1.93015 1.35633 1.79854 1.50962 1.71729 1.69019C1.63604 1.87076 1.6086 2.07093 1.63827 2.2667C1.66794 2.46247 1.75345 2.64553 1.88455 2.79392L5.82192 7.22367C5.9099 7.32282 5.95846 7.45078 5.95842 7.58333V10.5625Z" fill="url(#paint0_linear_5140_1461)"/>
</g>
<defs>
<linearGradient id="paint0_linear_5140_1461" x1="4.21428" y1="9.9561" x2="13.3344" y2="8.67693" gradientUnits="userSpaceOnUse">
<stop stop-color="#D099F7"/>
<stop offset="1" stop-color="#A05DDB"/>
</linearGradient>
<clipPath id="clip0_5140_1461">
<rect width="13" height="13" fill="white"/>
</clipPath>
</defs>
</svg>
