<svg width="22" height="22" viewBox="0 0 22 22" fill="none" xmlns="http://www.w3.org/2000/svg">
<g clip-path="url(#clip0_4727_1533)">
<path d="M12.6913 15.8279L9.7011 18.8181C8.83295 19.663 7.66703 20.1322 6.4556 20.1241C5.24416 20.116 4.08464 19.6312 3.22789 18.7747C2.37113 17.9182 1.88605 16.7588 1.8776 15.5474C1.86914 14.3359 2.33798 13.1699 3.18269 12.3015L6.17285 9.30858C6.34473 9.13658 6.44125 8.90334 6.44116 8.66018C6.44108 8.41701 6.3444 8.18384 6.17239 8.01196C6.00039 7.84008 5.76715 7.74357 5.52399 7.74365C5.28082 7.74374 5.04765 7.84042 4.87577 8.01242L1.88652 11.0053C0.678602 12.2139 0.000241807 13.8527 0.000671591 15.5614C0.00110137 17.2701 0.680285 18.9086 1.88881 20.1165C3.09734 21.3244 4.73621 22.0028 6.44489 22.0024C8.15357 22.0019 9.7921 21.3228 11 20.1142L13.9902 17.1241C14.1572 16.9512 14.2496 16.7196 14.2475 16.4793C14.2454 16.2389 14.149 16.009 13.979 15.8391C13.8091 15.6691 13.5792 15.5727 13.3388 15.5706C13.0985 15.5685 12.8669 15.6609 12.694 15.8279H12.6913Z" fill="url(#paint0_linear_4727_1533)"/>
<path d="M20.1154 1.88952C19.5189 1.28893 18.8092 0.812689 18.0273 0.488388C17.2454 0.164087 16.407 -0.00182428 15.5605 0.000266728C14.7145 -0.00198069 13.8764 0.163505 13.0947 0.487155C12.3131 0.810806 11.6033 1.2862 11.0065 1.88585L8.01175 4.87693C7.83975 5.04882 7.74307 5.28199 7.74298 5.52515C7.7429 5.76832 7.83941 6.00155 8.01129 6.17356C8.18317 6.34556 8.41635 6.44224 8.65951 6.44233C8.90267 6.44241 9.13591 6.3459 9.30792 6.17402L12.3008 3.18385C12.7276 2.75453 13.2353 2.41413 13.7945 2.18235C14.3537 1.95058 14.9533 1.83204 15.5587 1.8336C16.4701 1.8339 17.3609 2.10441 18.1186 2.61093C18.8763 3.11745 19.4668 3.83725 19.8155 4.67932C20.1642 5.52139 20.2554 6.44794 20.0776 7.34183C19.8997 8.23572 19.4609 9.05683 18.8165 9.70135L15.8263 12.6915C15.6543 12.8635 15.5577 13.0968 15.5577 13.3401C15.5577 13.5833 15.6543 13.8166 15.8263 13.9886C15.9983 14.1606 16.2316 14.2572 16.4749 14.2572C16.7181 14.2572 16.9514 14.1606 17.1234 13.9886L20.1136 11.0003C21.32 9.79127 21.9976 8.1532 21.998 6.44527C21.9983 4.73735 21.3213 3.099 20.1154 1.88952Z" fill="url(#paint1_linear_4727_1533)"/>
<path d="M13.1021 7.60205L7.60211 13.102C7.51456 13.1866 7.44473 13.2877 7.39669 13.3996C7.34864 13.5114 7.32336 13.6317 7.3223 13.7534C7.32124 13.8751 7.34444 13.9958 7.39053 14.1085C7.43662 14.2211 7.50468 14.3235 7.59075 14.4096C7.67682 14.4956 7.77917 14.5637 7.89182 14.6098C8.00448 14.6559 8.12518 14.6791 8.2469 14.678C8.36861 14.677 8.4889 14.6517 8.60073 14.6036C8.71257 14.5556 8.81372 14.4857 8.89828 14.3982L14.3983 8.89821C14.5653 8.72532 14.6577 8.49377 14.6556 8.25343C14.6535 8.01308 14.5571 7.78317 14.3871 7.61321C14.2172 7.44325 13.9872 7.34685 13.7469 7.34476C13.5066 7.34267 13.275 7.43507 13.1021 7.60205Z" fill="url(#paint2_linear_4727_1533)"/>
</g>
<defs>
<linearGradient id="paint0_linear_4727_1533" x1="4.39113" y1="18.6637" x2="15.2585" y2="17.0018" gradientUnits="userSpaceOnUse">
<stop stop-color="#D099F7"/>
<stop offset="1" stop-color="#A05DDB"/>
</linearGradient>
<linearGradient id="paint1_linear_4727_1533" x1="12.1359" y1="10.919" x2="23.0092" y2="9.25502" gradientUnits="userSpaceOnUse">
<stop stop-color="#D099F7"/>
<stop offset="1" stop-color="#A05DDB"/>
</linearGradient>
<linearGradient id="paint2_linear_4727_1533" x1="9.58218" y1="12.961" x2="15.1758" y2="12.1048" gradientUnits="userSpaceOnUse">
<stop stop-color="#D099F7"/>
<stop offset="1" stop-color="#A05DDB"/>
</linearGradient>
<clipPath id="clip0_4727_1533">
<rect width="22" height="22" fill="white"/>
</clipPath>
</defs>
</svg>
