<svg width="24" height="25" viewBox="0 0 24 25" fill="none" xmlns="http://www.w3.org/2000/svg">
<path d="M19 0.5H5C3.67441 0.501588 2.40356 1.02888 1.46622 1.96622C0.528882 2.90356 0.00158786 4.17441 0 5.5L0 19.5C0.00158786 20.8256 0.528882 22.0964 1.46622 23.0338C2.40356 23.9711 3.67441 24.4984 5 24.5H16.343C16.9998 24.5016 17.6504 24.373 18.2572 24.1215C18.864 23.87 19.4149 23.5008 19.878 23.035L22.536 20.379C23.0017 19.9157 23.3709 19.3646 23.6222 18.7576C23.8735 18.1507 24.0019 17.4999 24 16.843V5.5C23.9984 4.17441 23.4711 2.90356 22.5338 1.96622C21.5964 1.02888 20.3256 0.501588 19 0.5V0.5ZM2 19.5V5.5C2 4.70435 2.31607 3.94129 2.87868 3.37868C3.44129 2.81607 4.20435 2.5 5 2.5H19C19.7957 2.5 20.5587 2.81607 21.1213 3.37868C21.6839 3.94129 22 4.70435 22 5.5V15.5H18C17.2044 15.5 16.4413 15.8161 15.8787 16.3787C15.3161 16.9413 15 17.7044 15 18.5V22.5H5C4.20435 22.5 3.44129 22.1839 2.87868 21.6213C2.31607 21.0587 2 20.2957 2 19.5ZM18.464 21.621C18.0608 22.0198 17.5534 22.2971 17 22.421V18.5C17 18.2348 17.1054 17.9804 17.2929 17.7929C17.4804 17.6054 17.7348 17.5 18 17.5H21.922C21.8004 18.0546 21.5229 18.5629 21.122 18.965L18.464 21.621ZM14 9.584V7.484C14.0009 7.22237 14.0534 6.96348 14.1544 6.72215C14.2555 6.48081 14.4031 6.26175 14.5888 6.07749C14.7745 5.89323 14.9948 5.74739 15.2369 5.6483C15.4791 5.54921 15.7384 5.49882 16 5.5C16.3652 5.50292 16.7228 5.60468 17.0348 5.79448C17.3468 5.98429 17.6015 6.25504 17.772 6.578C17.8101 6.65088 17.8334 6.73056 17.8407 6.81247C17.848 6.89437 17.8391 6.97692 17.8145 7.05538C17.7899 7.13385 17.7501 7.2067 17.6973 7.26978C17.6446 7.33285 17.5799 7.38492 17.507 7.423C17.4341 7.46108 17.3544 7.48444 17.2725 7.49173C17.1906 7.49902 17.1081 7.49011 17.0296 7.46551C16.9512 7.4409 16.8783 7.40108 16.8152 7.34832C16.7522 7.29555 16.7001 7.23088 16.662 7.158C16.5971 7.03796 16.5017 6.93709 16.3856 6.86549C16.2694 6.79389 16.1364 6.75406 16 6.75C15.9013 6.74906 15.8034 6.76783 15.712 6.8052C15.6207 6.84257 15.5377 6.8978 15.4679 6.96764C15.3982 7.03749 15.3431 7.12055 15.3058 7.21196C15.2686 7.30337 15.2499 7.4013 15.251 7.5V9.568C15.2498 9.66679 15.2683 9.76482 15.3055 9.85635C15.3427 9.94788 15.3978 10.0311 15.4676 10.101C15.5373 10.171 15.6204 10.2263 15.7118 10.2637C15.8032 10.3011 15.9012 10.3199 16 10.319C16.1957 10.3168 16.3829 10.2391 16.5226 10.1021C16.6624 9.96519 16.7438 9.77956 16.75 9.584V9.5H16.5C16.3674 9.5 16.2402 9.44732 16.1464 9.35355C16.0527 9.25979 16 9.13261 16 9C16 8.86739 16.0527 8.74022 16.1464 8.64645C16.2402 8.55268 16.3674 8.5 16.5 8.5H17.25C17.4489 8.5 17.6397 8.57902 17.7803 8.71967C17.921 8.86032 18 9.05109 18 9.25V9.584C17.9958 10.1117 17.7832 10.6163 17.4086 10.9879C17.034 11.3595 16.5277 11.568 16 11.568C15.7384 11.5692 15.4791 11.5188 15.2369 11.4197C14.9948 11.3206 14.7745 11.1748 14.5888 10.9905C14.4031 10.8063 14.2555 10.5872 14.1544 10.3459C14.0534 10.1045 14.0009 9.84563 14 9.584ZM8 6.15V9.506C7.99922 9.77804 7.94479 10.0473 7.83983 10.2982C7.73488 10.5492 7.58146 10.7771 7.38835 10.9687C7.19525 11.1603 6.96625 11.3119 6.71446 11.415C6.46267 11.518 6.19304 11.5703 5.921 11.569C5.53537 11.5618 5.15909 11.4491 4.83309 11.243C4.50708 11.0369 4.24384 10.7453 4.072 10.4C4.03191 10.3236 4.00743 10.2399 3.99997 10.1539C3.99252 10.0679 4.00224 9.98127 4.02858 9.89906C4.05492 9.81686 4.09734 9.74071 4.15338 9.67505C4.20942 9.60939 4.27796 9.55553 4.35501 9.51661C4.43206 9.47769 4.51608 9.45448 4.60218 9.44833C4.68829 9.44218 4.77475 9.45322 4.85655 9.4808C4.93835 9.50838 5.01384 9.55196 5.07864 9.60899C5.14344 9.66602 5.19625 9.73537 5.234 9.813C5.29747 9.9436 5.39456 10.0549 5.51529 10.1356C5.63602 10.2163 5.77606 10.2634 5.921 10.272C6.02394 10.2731 6.12605 10.2535 6.22131 10.2145C6.31658 10.1755 6.40306 10.1178 6.47567 10.0448C6.54827 9.97185 6.60553 9.88507 6.64406 9.78961C6.68259 9.69414 6.70161 9.59193 6.7 9.489V6.149C6.7 5.97661 6.76848 5.81128 6.89038 5.68938C7.01228 5.56748 7.17761 5.499 7.35 5.499C7.52239 5.499 7.68772 5.56748 7.80962 5.68938C7.93152 5.81128 8 5.97661 8 6.149V6.15ZM11.09 5.5H10C9.73479 5.5 9.48043 5.60536 9.29289 5.79289C9.10536 5.98043 9 6.23478 9 6.5V10.944C9 11.1098 9.06585 11.2687 9.18306 11.3859C9.30027 11.5032 9.45924 11.569 9.625 11.569C9.79076 11.569 9.94973 11.5032 10.0669 11.3859C10.1842 11.2687 10.25 11.1098 10.25 10.944V9.723H11.09C11.3673 9.723 11.6419 9.66839 11.898 9.56227C12.1542 9.45616 12.387 9.30063 12.5831 9.10456C12.7791 8.90849 12.9347 8.67572 13.0408 8.41954C13.1469 8.16336 13.2015 7.88879 13.2015 7.6115C13.2015 7.33421 13.1469 7.05964 13.0408 6.80346C12.9347 6.54729 12.7791 6.31452 12.5831 6.11844C12.387 5.92237 12.1542 5.76684 11.898 5.66073C11.6419 5.55462 11.3673 5.5 11.09 5.5ZM11.09 8.469H10.258L10.252 6.75H11.09C11.2053 6.74607 11.3203 6.76539 11.428 6.80681C11.5357 6.84823 11.634 6.91091 11.717 6.99111C11.8 7.07131 11.866 7.16739 11.911 7.27363C11.9561 7.37987 11.9793 7.4941 11.9793 7.6095C11.9793 7.72491 11.9561 7.83913 11.911 7.94537C11.866 8.05161 11.8 8.14769 11.717 8.22789C11.634 8.30809 11.5357 8.37077 11.428 8.41219C11.3203 8.45362 11.2053 8.47294 11.09 8.469Z" fill="#908D99"/>
</svg>
