<svg width="23" height="23" viewBox="0 0 23 23" fill="none" xmlns="http://www.w3.org/2000/svg">
<g clip-path="url(#clip0_2002_85)">
<path d="M4.16656 5.53077C3.80516 5.53172 3.44717 5.46099 3.11328 5.32269C2.7794 5.18438 2.47626 4.98124 2.22139 4.72502L0.806057 3.46552C0.62445 3.30361 0.514602 3.07618 0.500677 2.83327C0.486753 2.59037 0.569893 2.35188 0.731807 2.17027C0.893722 1.98866 1.12115 1.87882 1.36405 1.86489C1.60696 1.85097 1.84545 1.93411 2.02706 2.09602L3.47997 3.39219C3.56315 3.48559 3.66456 3.56099 3.77796 3.61374C3.89136 3.66648 4.01436 3.69547 4.13938 3.6989C4.26441 3.70234 4.38881 3.68015 4.50494 3.63371C4.62107 3.58727 4.72646 3.51755 4.81464 3.42885L8.11831 0.283771C8.29595 0.125619 8.52811 0.0427053 8.76575 0.052543C9.00339 0.0623807 9.22791 0.164199 9.39187 0.336493C9.55583 0.508787 9.64641 0.738066 9.64447 0.975902C9.64253 1.21374 9.54823 1.44151 9.38147 1.6111L6.09156 4.7406C5.83835 4.99234 5.53801 5.19169 5.2077 5.32728C4.87739 5.46286 4.5236 5.53201 4.16656 5.53077ZM22.4999 3.69744C22.4999 3.45432 22.4033 3.22117 22.2314 3.04926C22.0595 2.87735 21.8263 2.78077 21.5832 2.78077H12.4166C12.1734 2.78077 11.9403 2.87735 11.7684 3.04926C11.5965 3.22117 11.4999 3.45432 11.4999 3.69744C11.4999 3.94055 11.5965 4.17371 11.7684 4.34562C11.9403 4.51753 12.1734 4.61411 12.4166 4.61411H21.5832C21.8263 4.61411 22.0595 4.51753 22.2314 4.34562C22.4033 4.17371 22.4999 3.94055 22.4999 3.69744ZM6.09156 12.0739L9.38147 8.94444C9.4733 8.86269 9.54774 8.7633 9.60037 8.6522C9.653 8.54109 9.68274 8.42054 9.68783 8.2977C9.69291 8.17486 9.67324 8.05226 9.62997 7.93718C9.5867 7.82211 9.52073 7.71691 9.43598 7.62785C9.35122 7.53879 9.24942 7.46769 9.13663 7.41878C9.02384 7.36987 8.90236 7.34415 8.77942 7.34315C8.65648 7.34215 8.5346 7.36588 8.42103 7.41295C8.30745 7.46001 8.2045 7.52944 8.11831 7.61711L4.81831 10.7622C4.6438 10.929 4.41167 11.0222 4.17022 11.0222C3.92878 11.0222 3.69664 10.929 3.52214 10.7622L2.06464 9.30927C1.89176 9.14229 1.6602 9.0499 1.41986 9.05199C1.17951 9.05408 0.949598 9.15048 0.77964 9.32044C0.609683 9.49039 0.513278 9.72031 0.511189 9.96065C0.509101 10.201 0.601496 10.4326 0.768474 10.6054L2.22139 12.0584C2.73442 12.5715 3.42948 12.8611 4.1551 12.864C4.88072 12.8669 5.57808 12.5829 6.09522 12.0739H6.09156ZM22.4999 11.0308C22.4999 10.7877 22.4033 10.5545 22.2314 10.3826C22.0595 10.2107 21.8263 10.1141 21.5832 10.1141H12.4166C12.1734 10.1141 11.9403 10.2107 11.7684 10.3826C11.5965 10.5545 11.4999 10.7877 11.4999 11.0308C11.4999 11.2739 11.5965 11.507 11.7684 11.679C11.9403 11.8509 12.1734 11.9474 12.4166 11.9474H21.5832C21.8263 11.9474 22.0595 11.8509 22.2314 11.679C22.4033 11.507 22.4999 11.2739 22.4999 11.0308ZM6.09156 19.4073L9.37781 16.2778C9.46963 16.196 9.54407 16.0966 9.5967 15.9855C9.64933 15.8744 9.67907 15.7539 9.68416 15.631C9.68925 15.5082 9.66957 15.3856 9.6263 15.2705C9.58304 15.1554 9.51706 15.0502 9.43231 14.9612C9.34756 14.8721 9.24576 14.801 9.13296 14.7521C9.02017 14.7032 8.89869 14.6775 8.77575 14.6765C8.65282 14.6755 8.53093 14.6992 8.41736 14.7463C8.30378 14.7933 8.20084 14.8628 8.11464 14.9504L4.81464 18.0955C4.72646 18.1842 4.62107 18.2539 4.50494 18.3004C4.38881 18.3468 4.26441 18.369 4.13938 18.3656C4.01436 18.3621 3.89136 18.3332 3.77796 18.2804C3.66456 18.2277 3.56315 18.1523 3.47997 18.0589L2.02706 16.7627C1.84545 16.6008 1.60696 16.5176 1.36405 16.5316C1.12115 16.5455 0.893722 16.6553 0.731807 16.8369C0.569893 17.0185 0.486753 17.257 0.500677 17.4999C0.514602 17.7428 0.62445 17.9703 0.806057 18.1322L2.22139 19.3917C2.73442 19.9048 3.42948 20.1944 4.1551 20.1973C4.88072 20.2003 5.57808 19.9163 6.09522 19.4073H6.09156ZM22.4999 18.3641C22.4999 18.121 22.4033 17.8878 22.2314 17.7159C22.0595 17.544 21.8263 17.4474 21.5832 17.4474H12.4166C12.1734 17.4474 11.9403 17.544 11.7684 17.7159C11.5965 17.8878 11.4999 18.121 11.4999 18.3641C11.4999 18.6072 11.5965 18.8404 11.7684 19.0123C11.9403 19.1842 12.1734 19.2808 12.4166 19.2808H21.5832C21.8263 19.2808 22.0595 19.1842 22.2314 19.0123C22.4033 18.8404 22.4999 18.6072 22.4999 18.3641Z" fill="white"/>
</g>
<defs>
<clipPath id="clip0_2002_85">
<rect width="22" height="22" fill="white" transform="translate(0.5 0.0306396)"/>
</clipPath>
</defs>
</svg>
