<svg width="22" height="22" viewBox="0 0 22 22" fill="none" xmlns="http://www.w3.org/2000/svg">
<g clip-path="url(#clip0_2002_4)">
<path d="M20.625 3.64471H17.7961C17.6148 3.64475 17.4377 3.69854 17.2869 3.79926C17.1362 3.89999 17.0188 4.04314 16.9494 4.21061C16.88 4.37809 16.8619 4.56237 16.8973 4.74016C16.9326 4.91795 17.0199 5.08127 17.148 5.20946L18.1435 6.20496L14.8564 9.49121C14.6817 9.65814 14.4494 9.75129 14.2078 9.75129C13.9662 9.75129 13.7339 9.65814 13.5593 9.49121L13.4035 9.33446C12.8797 8.83403 12.1832 8.55477 11.4587 8.55477C10.7343 8.55477 10.0378 8.83403 9.51403 9.33446L4.83903 14.0095C4.66679 14.1822 4.57021 14.4163 4.57056 14.6602C4.5709 14.9042 4.66814 15.138 4.84087 15.3102C5.0136 15.4825 5.24769 15.579 5.49162 15.5787C5.73556 15.5783 5.96937 15.4811 6.14162 15.3084L10.8166 10.6334C10.9912 10.4663 11.2235 10.373 11.4652 10.373C11.7068 10.373 11.9392 10.4663 12.1137 10.6334L12.2695 10.7901C12.7935 11.2901 13.49 11.5691 14.2142 11.5691C14.9385 11.5691 15.635 11.2901 16.159 10.7901L19.4461 7.50296L20.4416 8.49846C20.5702 8.62455 20.7332 8.70995 20.91 8.74399C21.0869 8.77803 21.2699 8.75921 21.4361 8.68988C21.6024 8.62055 21.7445 8.50378 21.8448 8.35415C21.9451 8.20452 21.999 8.02867 22 7.84855V5.01971C22 4.65504 21.8551 4.30531 21.5972 4.04744C21.3394 3.78958 20.9896 3.64471 20.625 3.64471Z" fill="white"/>
<path d="M21.0833 20.1447H4.58333C3.85399 20.1447 3.15451 19.8549 2.63879 19.3392C2.12306 18.8235 1.83333 18.124 1.83333 17.3947V0.916667C1.83333 0.673552 1.73676 0.440394 1.56485 0.268485C1.39294 0.0965771 1.15978 0 0.916667 0C0.673552 0 0.440394 0.0965771 0.268485 0.268485C0.0965771 0.440394 0 0.673552 0 0.916667L0 17.3947C0.00145554 18.6098 0.484808 19.7747 1.34403 20.634C2.20326 21.4932 3.3682 21.9765 4.58333 21.978H21.0833C21.3264 21.978 21.5596 21.8814 21.7315 21.7095C21.9034 21.5376 22 21.3044 22 21.0613C22 20.8182 21.9034 20.5851 21.7315 20.4132C21.5596 20.2412 21.3264 20.1447 21.0833 20.1447Z" fill="white"/>
</g>
<defs>
<clipPath id="clip0_2002_4">
<rect width="22" height="22" fill="white"/>
</clipPath>
</defs>
</svg>
