<svg width="19" height="18" viewBox="0 0 19 18" fill="none" xmlns="http://www.w3.org/2000/svg">
<path d="M9.33789 15.7495L9.33789 9.74951M9.33789 15.7495L4.27789 12.587C3.81837 12.2998 3.58861 12.1562 3.46325 11.93C3.33789 11.7039 3.33789 11.4329 3.33789 10.891L3.33789 5.99951M9.33789 15.7495L12.3379 13.8745L14.3979 12.587C14.8574 12.2998 15.0872 12.1562 15.2125 11.93C15.3379 11.7039 15.3379 11.4329 15.3379 10.891L15.3379 5.99951M9.33789 9.74951L3.33789 5.99951M9.33789 9.74951L15.3379 5.99951M3.33789 5.99951L8.27789 2.91201C8.79336 2.58984 9.05109 2.42876 9.33789 2.42876C9.62469 2.42876 9.88242 2.58984 10.3979 2.91201L15.3379 5.99951" stroke="url(#paint0_linear_18_833)" stroke-width="2" stroke-linejoin="round"/>
<path d="M11.3379 10.8745C11.3379 11.4268 11.7856 11.8745 12.3379 11.8745C12.8902 11.8745 13.3379 11.4268 13.3379 10.8745L12.3379 10.8745L11.3379 10.8745ZM11.3979 7.28701L10.8679 8.13501L11.3979 7.28701ZM12.2125 7.94399L11.3379 8.42876L12.2125 7.94399ZM6.33789 4.12451L5.80789 4.97251L10.8679 8.13501L11.3979 7.28701L11.9279 6.43901L6.86789 3.27651L6.33789 4.12451ZM12.3379 10.8745L13.3379 10.8745L13.3379 8.98301L12.3379 8.98301L11.3379 8.98301L11.3379 10.8745L12.3379 10.8745ZM11.3979 7.28701L10.8679 8.13501C11.1136 8.28858 11.2383 8.36774 11.3222 8.43204C11.3891 8.48339 11.3649 8.47745 11.3379 8.42876L12.2125 7.94399L13.0872 7.45922C12.9348 7.18435 12.733 6.99353 12.5389 6.84473C12.3617 6.70889 12.1417 6.57264 11.9279 6.43901L11.3979 7.28701ZM12.3379 8.98301L13.3379 8.98301C13.3379 8.73088 13.3389 8.47212 13.3177 8.24984C13.2944 8.00637 13.2395 7.73409 13.0872 7.45922L12.2125 7.94399L11.3379 8.42876C11.3109 8.38006 11.3187 8.35635 11.3268 8.44037C11.3368 8.54558 11.3379 8.69324 11.3379 8.98301L12.3379 8.98301Z" fill="url(#paint1_linear_18_833)"/>
<defs>
<linearGradient id="paint0_linear_18_833" x1="9.33789" y1="2.24951" x2="9.33789" y2="15.7495" gradientUnits="userSpaceOnUse">
<stop stop-color="#D099F7"/>
<stop offset="1" stop-color="#A665DF"/>
</linearGradient>
<linearGradient id="paint1_linear_18_833" x1="9.33789" y1="4.12451" x2="9.33789" y2="10.8745" gradientUnits="userSpaceOnUse">
<stop stop-color="#D099F7"/>
<stop offset="1" stop-color="#A665DF"/>
</linearGradient>
</defs>
</svg>
