<svg width="12" height="12" viewBox="0 0 12 12" fill="none" xmlns="http://www.w3.org/2000/svg">
<g clip-path="url(#clip0_4579_1549)">
<path d="M6 0C4.81331 0 3.65328 0.351894 2.66658 1.01118C1.67989 1.67047 0.910851 2.60754 0.456726 3.7039C0.00259972 4.80026 -0.11622 6.00666 0.115291 7.17054C0.346802 8.33443 0.918247 9.40353 1.75736 10.2426C2.59648 11.0818 3.66558 11.6532 4.82946 11.8847C5.99335 12.1162 7.19975 11.9974 8.2961 11.5433C9.39246 11.0892 10.3295 10.3201 10.9888 9.33342C11.6481 8.34673 12 7.18669 12 6C11.9983 4.40923 11.3656 2.88411 10.2407 1.75926C9.1159 0.634414 7.59077 0.00172054 6 0V0ZM6 11C5.0111 11 4.0444 10.7068 3.22215 10.1573C2.39991 9.60794 1.75904 8.82705 1.38061 7.91342C1.00217 6.99979 0.90315 5.99445 1.09608 5.02455C1.289 4.05464 1.76521 3.16373 2.46447 2.46447C3.16373 1.7652 4.05465 1.289 5.02455 1.09607C5.99446 0.903148 6.99979 1.00216 7.91342 1.3806C8.82705 1.75904 9.60794 2.3999 10.1574 3.22215C10.7068 4.04439 11 5.01109 11 6C10.9985 7.32564 10.4713 8.59656 9.53393 9.53393C8.59656 10.4713 7.32564 10.9985 6 11Z" fill="white" fill-opacity="0.71"/>
<path d="M6.35862 2.53134C6.07028 2.47881 5.77392 2.49028 5.49052 2.56496C5.20711 2.63964 4.94357 2.77569 4.71857 2.96349C4.49356 3.15129 4.31258 3.38625 4.18843 3.65174C4.06428 3.91723 3.99999 4.20676 4.00012 4.49984C4.00012 4.63245 4.0528 4.75962 4.14657 4.85339C4.24034 4.94716 4.36751 4.99984 4.50012 4.99984C4.63273 4.99984 4.75991 4.94716 4.85367 4.85339C4.94744 4.75962 5.00012 4.63245 5.00012 4.49984C4.99999 4.35273 5.03233 4.2074 5.09482 4.07422C5.1573 3.94104 5.24841 3.82328 5.36163 3.72935C5.47485 3.63542 5.6074 3.56763 5.74983 3.53081C5.89226 3.49399 6.04106 3.48905 6.18562 3.51634C6.38314 3.55468 6.56474 3.65103 6.70724 3.79308C6.84974 3.93514 6.94666 4.11644 6.98562 4.31384C7.02497 4.52104 6.9978 4.73538 6.90799 4.92621C6.81819 5.11704 6.67035 5.27459 6.48562 5.37634C6.1797 5.55357 5.92691 5.8096 5.75358 6.11774C5.58025 6.42588 5.49272 6.77487 5.50012 7.12834V7.49984C5.50012 7.63245 5.5528 7.75962 5.64657 7.85339C5.74033 7.94716 5.86751 7.99984 6.00012 7.99984C6.13273 7.99984 6.2599 7.94716 6.35367 7.85339C6.44744 7.75962 6.50012 7.63245 6.50012 7.49984V7.12834C6.49384 6.95435 6.53352 6.78177 6.61515 6.62799C6.69678 6.4742 6.81749 6.34464 6.96512 6.25234C7.32737 6.05338 7.61909 5.74707 7.80016 5.37554C7.98122 5.00402 8.04274 4.58552 7.97625 4.1776C7.90977 3.76969 7.71854 3.39239 7.42887 3.09759C7.13919 2.80279 6.76531 2.60497 6.35862 2.53134Z" fill="white" fill-opacity="0.71"/>
<path d="M6.50013 8.99985C6.50013 8.72371 6.27627 8.49985 6.00012 8.49985C5.72398 8.49985 5.50012 8.72371 5.50012 8.99985C5.50012 9.27599 5.72398 9.49985 6.00012 9.49985C6.27627 9.49985 6.50013 9.27599 6.50013 8.99985Z" fill="white" fill-opacity="0.71"/>
</g>
<defs>
<clipPath id="clip0_4579_1549">
<rect width="12" height="12" fill="white"/>
</clipPath>
</defs>
</svg>
