<svg width="13" height="14" viewBox="0 0 13 14" fill="none" xmlns="http://www.w3.org/2000/svg">
<path d="M10.2917 1.58333H9.75V1.04167C9.75 0.898008 9.69293 0.760233 9.59135 0.658651C9.48977 0.557068 9.35199 0.5 9.20833 0.5C9.06467 0.5 8.9269 0.557068 8.82532 0.658651C8.72373 0.760233 8.66667 0.898008 8.66667 1.04167V1.58333H4.33333V1.04167C4.33333 0.898008 4.27627 0.760233 4.17468 0.658651C4.0731 0.557068 3.93533 0.5 3.79167 0.5C3.64801 0.5 3.51023 0.557068 3.40865 0.658651C3.30707 0.760233 3.25 0.898008 3.25 1.04167V1.58333H2.70833C1.9903 1.58419 1.30193 1.86981 0.794202 2.37754C0.286478 2.88526 0.00086009 3.57364 0 4.29167L0 10.7917C0.00086009 11.5097 0.286478 12.1981 0.794202 12.7058C1.30193 13.2135 1.9903 13.4991 2.70833 13.5H10.2917C11.0097 13.4991 11.6981 13.2135 12.2058 12.7058C12.7135 12.1981 12.9991 11.5097 13 10.7917V4.29167C12.9991 3.57364 12.7135 2.88526 12.2058 2.37754C11.6981 1.86981 11.0097 1.58419 10.2917 1.58333ZM1.08333 4.29167C1.08333 3.86069 1.25454 3.44736 1.55928 3.14262C1.86403 2.83787 2.27736 2.66667 2.70833 2.66667H10.2917C10.7226 2.66667 11.136 2.83787 11.4407 3.14262C11.7455 3.44736 11.9167 3.86069 11.9167 4.29167V4.83333H1.08333V4.29167ZM10.2917 12.4167H2.70833C2.27736 12.4167 1.86403 12.2455 1.55928 11.9407C1.25454 11.636 1.08333 11.2226 1.08333 10.7917V5.91667H11.9167V10.7917C11.9167 11.2226 11.7455 11.636 11.4407 11.9407C11.136 12.2455 10.7226 12.4167 10.2917 12.4167Z" fill="white"/>
</svg>
