<svg width="165" height="23" viewBox="0 0 165 23" fill="none" xmlns="http://www.w3.org/2000/svg">
<path d="M0.472514 12.5865L5.39246 21.1691C5.39246 21.1691 5.65485 22.1578 7.35018 22.0701C8.67857 22.0003 16.2727 22.0701 16.2727 22.0701C16.2727 22.0701 17.3828 21.8253 17.4438 20.9675C17.4699 20.6525 17.4437 20.3287 17.2951 20.0578L13.1178 12.8225C12.8554 12.3587 13.2664 11.1165 14.1402 11.1427H23.4215C23.4215 11.1427 24.3127 11.2741 24.9943 10.0668C25.3438 9.45419 28.8221 3.39997 29.6524 1.94746C29.7487 1.77251 29.801 1.66733 29.8097 1.64116V1.63244C29.8974 1.01983 29.6001 0.425187 29.0671 0.136328C28.5341 -0.15253 29.0148 0.110162 28.9621 0.0927173C28.9093 0.0752729 28.8483 0.0752729 28.8483 0.0752729H19.8033C19.8033 0.0752729 19.0955 0.0403839 18.4836 1.18658C17.9332 2.2276 13.8691 9.20074 13.5109 9.81334C13.1526 10.4259 13.4673 9.86567 13.4673 9.86567C13.4673 9.86567 13.4673 9.8744 13.4412 9.90056C13.415 9.92673 13.4063 9.93545 13.3802 9.97034C13.1265 10.2064 12.4536 10.6963 11.6413 10.1017C11.5537 10.0319 11.4752 9.9529 11.4143 9.85695C11.0038 9.15712 9.11572 5.89349 9.11572 5.89349L7.0268 2.26249L6.90431 2.09626C6.42359 1.47493 5.4888 1.50109 5.04293 2.13987L4.87689 2.3846L0.42024 10.1017C0.42024 10.1017 -0.0169174 10.6614 0.0005074 11.388C0.0005074 11.7553 0.254192 12.1755 0.472514 12.5778V12.5865Z" fill="url(#paint0_linear_2001_211)"/>
<path d="M40.3097 16.0318L36.0693 2.22353H40.7833L44.4496 14.6588C44.4747 14.7337 44.4993 14.7589 44.5496 14.7589C44.5998 14.7589 44.6244 14.7337 44.6495 14.6588L48.2662 2.22353H52.9801L48.7397 16.0318C48.0412 18.3288 46.7692 19.4776 44.5245 19.4776C42.2797 19.4776 41.0077 18.3288 40.3092 16.0318H40.3097Z" fill="white"/>
<path d="M58.8416 19.0783C55.9983 19.0783 54.8508 17.5801 54.8508 15.2077V6.0935C54.8508 3.72158 55.9983 2.2229 58.8416 2.2229H67.4715V6.34285H59.4653V8.5901H66.898V12.7101H59.4653V14.9573H67.5966V19.0772H58.8421L58.8416 19.0783Z" fill="white"/>
<path d="M70.8384 19.0784V2.22353H77.897C81.8878 2.22353 84.9304 4.09623 84.9304 7.81702C84.9304 10.0396 83.6835 11.8621 81.713 12.4865C82.5612 13.036 83.1096 14.0098 83.8578 15.5326L85.5788 19.0784H80.5655L78.9942 15.9071C78.4208 14.7583 77.7719 14.334 76.2754 14.334H75.4273L75.4022 19.0784H70.8379H70.8384ZM75.4524 6.46815L75.4273 10.2387H77.8965C79.2433 10.2387 80.1909 9.48962 80.1909 8.29109C80.1909 7.01765 79.2433 6.46815 77.9462 6.46815H75.4519H75.4524Z" fill="white"/>
<path d="M87.4995 15.6571L91.3407 13.7341C91.8147 14.7577 92.7623 15.2323 94.3336 15.2323C95.5559 15.2323 96.4784 14.8577 96.4784 14.0589C96.4784 13.0599 95.4806 12.9101 93.9595 12.6854C91.4406 12.3108 87.7491 11.337 87.7491 7.31663C87.7491 4.22025 90.5176 1.84833 94.2588 1.84833C97.2021 1.84833 99.6959 3.17154 100.843 5.66865L97.0022 7.59112C96.5281 6.76713 95.6303 6.09296 94.0589 6.09296C92.9617 6.09296 92.3631 6.44236 92.3631 7.14167C92.3631 8.09034 93.4604 8.38997 95.1065 8.63983C97.6008 9.01438 101.092 9.96304 101.092 14.0081C101.092 17.1045 98.0743 19.4764 94.3331 19.4764C91.1408 19.4764 88.6465 18.1532 87.499 15.6561L87.4995 15.6571Z" fill="white"/>
<path d="M102.788 10.6635C102.788 5.6447 106.579 1.87415 111.668 1.87415C116.756 1.87415 120.547 5.6447 120.547 10.6635C120.547 15.6824 116.756 19.4529 111.668 19.4529C106.58 19.4529 102.788 15.6824 102.788 10.6635ZM115.808 10.6635C115.808 8.16644 114.012 6.24396 111.668 6.24396C109.323 6.24396 107.527 8.16644 107.527 10.6635C107.527 13.1607 109.323 15.0831 111.668 15.0831C114.012 15.0831 115.808 13.1607 115.808 10.6635Z" fill="white"/>
<path d="M124.195 19.0783V2.44821H128.66C132.725 2.44821 135.643 4.19624 135.643 8.0417C135.643 11.8872 132.526 13.685 128.66 13.685H125.118V19.0783H124.195ZM125.117 3.29734V12.8107H128.659C131.951 12.8107 134.72 11.5121 134.72 8.0417C134.72 4.5713 132.151 3.29734 128.659 3.29734H125.117Z" fill="white"/>
<path d="M142.477 3.99617C142.851 2.79764 143.674 2.22351 144.822 2.22351C145.969 2.22351 146.767 2.79764 147.141 3.99617L151.905 19.0779H151.008L149.411 13.9841L140.232 14.0092L138.636 19.0784H137.713L142.477 3.99668V3.99617ZM140.481 13.1601H149.136L146.343 4.24603C146.093 3.44718 145.62 3.0475 144.821 3.0475C144.023 3.0475 143.524 3.44718 143.275 4.24603L140.481 13.1601Z" fill="white"/>
<path d="M158.091 19.0783V13.3602C157.268 13.2104 156.669 12.5613 156.17 11.4126L152.205 2.44821H153.177L156.993 11.1627C157.393 12.0867 157.816 12.586 158.565 12.586C159.313 12.586 159.737 12.0867 160.161 11.1627L164.002 2.44821H165L160.96 11.4126C160.461 12.5613 159.862 13.2104 158.989 13.3602V19.0783H158.091H158.091Z" fill="white"/>
<defs>
<linearGradient id="paint0_linear_2001_211" x1="2.3959" y1="16.8024" x2="28.3193" y2="2.03769" gradientUnits="userSpaceOnUse">
<stop offset="0.1" stop-color="#A77DF8"/>
<stop offset="1" stop-color="#4A20A8"/>
</linearGradient>
</defs>
</svg>
