<svg width="427" height="57" viewBox="0 0 427 57" fill="none" xmlns="http://www.w3.org/2000/svg">
<path d="M1.22006 32.4988L13.9236 54.6595C13.9236 54.6595 14.6012 57.2123 18.9786 56.9858C22.4086 56.8056 42.0171 56.9858 42.0171 56.9858C42.0171 56.9858 44.8833 56.3539 45.0408 54.1388C45.1083 53.3254 45.0408 52.4895 44.657 51.79L33.8709 33.1082C33.1934 31.9106 34.2547 28.7033 36.5109 28.7709H60.4756C60.4756 28.7709 62.7768 29.11 64.5368 25.9929C65.4393 24.4111 74.4205 8.77884 76.5642 5.02843C76.813 4.57668 76.948 4.30511 76.9705 4.23754V4.21502C77.1967 2.63325 76.4292 1.09785 75.053 0.352004C73.6768 -0.393839 74.918 0.284442 74.7817 0.2394C74.6454 0.194357 74.488 0.194357 74.488 0.194357H51.1332C51.1332 0.194357 49.3058 0.104273 47.7257 3.0638C46.3045 5.75175 35.8108 23.7567 34.8859 25.3384C33.9609 26.9202 34.7734 25.4736 34.7734 25.4736C34.7734 25.4736 34.7734 25.4961 34.7059 25.5636C34.6384 25.6312 34.6159 25.6537 34.5484 25.7438C33.8934 26.3532 32.1559 27.6183 30.0585 26.0829C29.8322 25.9028 29.6298 25.6988 29.4723 25.451C28.4123 23.644 23.5373 15.2172 23.5373 15.2172L18.1436 5.84184L17.8273 5.41261C16.5861 3.80832 14.1724 3.87588 13.0212 5.52522L12.5924 6.15713L1.08508 26.0829C1.08508 26.0829 -0.0436817 27.5283 0.00131014 29.4041C0.00131014 30.3527 0.656339 31.4376 1.22006 32.4763V32.4988Z" fill="url(#paint0_linear_2308_850)"/>
<path d="M104.082 41.3946L93.1333 5.74121H105.305L114.772 37.8496C114.837 38.043 114.9 38.1079 115.03 38.1079C115.159 38.1079 115.223 38.043 115.288 37.8496L124.626 5.74121H136.798L125.849 41.3946C124.045 47.3256 120.761 50.2918 114.965 50.2918C109.169 50.2918 105.885 47.3256 104.081 41.3946H104.082Z" fill="#0E0722"/>
<path d="M151.932 49.2611C144.591 49.2611 141.628 45.3928 141.628 39.2671V15.7339C141.628 9.60954 144.591 5.7399 151.932 5.7399H174.215V16.3778H153.543V22.1803H172.734V32.8181H153.543V38.6206H174.538V49.2585H151.934L151.932 49.2611Z" fill="#0E0722"/>
<path d="M182.91 49.2611V5.74121H201.135C211.44 5.74121 219.296 10.5766 219.296 20.1838C219.296 25.9227 216.076 30.6283 210.988 32.2405C213.178 33.6593 214.594 36.1738 216.526 40.1057L220.97 49.2611H208.026L203.968 41.0727C202.488 38.1066 200.812 37.011 196.948 37.011H194.758L194.693 49.2611H182.908H182.91ZM194.823 16.701L194.758 26.4367H201.134C204.611 26.4367 207.058 24.5026 207.058 21.4079C207.058 18.1198 204.611 16.701 201.262 16.701H194.822H194.823Z" fill="#0E0722"/>
<path d="M225.929 40.4275L235.847 35.4623C237.071 38.1052 239.518 39.3306 243.575 39.3306C246.731 39.3306 249.113 38.3635 249.113 36.3009C249.113 33.7216 246.537 33.3347 242.609 32.7545C236.105 31.7874 226.574 29.273 226.574 18.8921C226.574 10.8972 233.722 4.77277 243.382 4.77277C250.982 4.77277 257.421 8.18934 260.384 14.637L250.466 19.6009C249.242 17.4733 246.923 15.7326 242.866 15.7326C240.033 15.7326 238.487 16.6347 238.487 18.4404C238.487 20.8899 241.32 21.6635 245.571 22.3087C252.011 23.2758 261.027 25.7253 261.027 36.1697C261.027 44.1647 253.234 50.2891 243.574 50.2891C235.331 50.2891 228.891 46.8725 225.928 40.4249L225.929 40.4275Z" fill="#0E0722"/>
<path d="M265.406 27.5337C265.406 14.5748 275.194 4.83908 288.333 4.83908C301.472 4.83908 311.259 14.5748 311.259 27.5337C311.259 40.4925 301.471 50.2282 288.333 50.2282C275.195 50.2282 265.406 40.4925 265.406 27.5337ZM299.024 27.5337C299.024 21.086 294.387 16.1221 288.333 16.1221C282.279 16.1221 277.642 21.086 277.642 27.5337C277.642 33.9813 282.279 38.9452 288.333 38.9452C294.387 38.9452 299.024 33.9813 299.024 27.5337Z" fill="#0E0722"/>
<path d="M320.678 49.2612V6.32153H332.207C342.704 6.32153 350.239 10.835 350.239 20.7641C350.239 30.6933 342.19 35.3352 332.207 35.3352H323.061V49.2612H320.678ZM323.06 8.51402V33.0778H332.205C340.706 33.0778 347.855 29.7249 347.855 20.7641C347.855 11.8034 341.221 8.51402 332.205 8.51402H323.06Z" fill="#0E0722"/>
<path d="M367.884 10.3183C368.85 7.22363 370.975 5.74121 373.938 5.74121C376.901 5.74121 378.961 7.22363 379.927 10.3183L392.229 49.2598H389.91L385.788 36.1075L362.088 36.1724L357.966 49.2611H355.583L367.884 10.3196V10.3183ZM362.731 33.9799H385.079L377.866 10.9634C377.221 8.90078 375.998 7.86879 373.937 7.86879C371.875 7.86879 370.587 8.90078 369.944 10.9634L362.731 33.9799Z" fill="#0E0722"/>
<path d="M408.199 49.2612V34.4967C406.074 34.1098 404.529 32.434 403.241 29.4678L393.001 6.32153H395.513L405.366 28.8227C406.397 31.2086 407.491 32.4976 409.424 32.4976C411.356 32.4976 412.45 31.2086 413.546 28.8227L423.464 6.32153H426.04L415.607 29.4678C414.32 32.434 412.774 34.1098 410.519 34.4967V49.2612H408.201H408.199Z" fill="#0E0722"/>
<defs>
<linearGradient id="paint0_linear_2308_850" x1="6.18637" y1="43.3844" x2="73.1219" y2="5.26092" gradientUnits="userSpaceOnUse">
<stop offset="0.1" stop-color="#A77DF8"/>
<stop offset="1" stop-color="#4A20A8"/>
</linearGradient>
</defs>
</svg>
