<svg width="55" height="51" viewBox="0 0 55 51" fill="none" xmlns="http://www.w3.org/2000/svg">
<rect width="54.7778" height="51" rx="9" transform="matrix(-1 0 0 1 54.7778 0)" fill="#3E2514"/>
<path d="M27.5722 32.5541C29.8906 32.5541 31.777 30.6677 31.777 28.3493C31.777 26.0309 29.8906 24.1445 27.5722 24.1445C25.2538 24.1445 23.3674 26.0309 23.3674 28.3493C23.3674 30.6677 25.2538 32.5541 27.5722 32.5541ZM27.5722 26.1082C28.808 26.1082 29.8134 27.1135 29.8134 28.3493C29.8134 29.5851 28.808 30.5905 27.5722 30.5905C26.3364 30.5905 25.3311 29.5851 25.3311 28.3493C25.3311 27.1135 26.3364 26.1082 27.5722 26.1082Z" fill="#EF953B"/>
<path d="M43.5555 17.6986H11.3257C10.7837 17.6986 10.3439 18.1385 10.3439 18.6804V38.0183C10.3439 38.5603 10.7837 39.0001 11.3257 39.0001H43.5555C44.0975 39.0001 44.5373 38.5603 44.5373 38.0183V18.6804C44.5373 18.1385 44.0975 17.6986 43.5555 17.6986ZM36.6933 21.5225C37.069 22.4284 37.6096 23.2387 38.3034 23.9325C38.9959 24.625 39.8076 25.167 40.7135 25.5427C41.3144 25.7914 41.9375 25.9564 42.5737 26.0414V30.656C40.9622 30.8681 39.4725 31.5972 38.3034 32.7662C37.1344 33.9353 36.4053 35.425 36.1932 37.0365H18.688C18.4759 35.425 17.7468 33.9353 16.5791 32.7662C15.4101 31.5972 13.9203 30.8681 12.3088 30.656V26.0414C13.9203 25.8294 15.4101 25.1002 16.5791 23.9312C17.7481 22.7622 18.4773 21.2724 18.6893 19.6609H36.1958C36.2809 20.2985 36.4458 20.9216 36.6946 21.5212L36.6933 21.5225ZM42.5737 19.6622V24.0556C42.1954 23.9862 41.8249 23.8775 41.4649 23.7283C40.7986 23.4521 40.2016 23.0541 39.6924 22.5436C39.1818 22.033 38.7839 21.4374 38.5077 20.771C38.3584 20.411 38.2498 20.0406 38.1804 19.6622H42.5737ZM12.3075 19.6622H16.7021C16.5058 20.7475 15.9861 21.7476 15.1888 22.5436C14.3916 23.3395 13.3927 23.8605 12.3075 24.0569V19.6622ZM12.3075 37.0365V32.6419C13.3927 32.8382 14.3929 33.358 15.1888 34.1552C15.9861 34.9524 16.5058 35.9513 16.7021 37.0365H12.3075ZM42.5737 37.0365H38.1791C38.3754 35.9513 38.8952 34.9511 39.6924 34.1552C40.4896 33.358 41.4885 32.8382 42.5737 32.6419V37.0365Z" fill="#EF953B"/>
<path d="M13.0134 16.4404C13.2045 16.6315 13.4559 16.7284 13.7072 16.7284C13.9586 16.7284 14.2099 16.6328 14.401 16.4404C14.7846 16.0568 14.7846 15.435 14.401 15.0515L13.6954 14.3459H43.5545C44.0965 14.3459 44.5363 13.906 44.5363 13.364C44.5363 12.8221 44.0965 12.3822 43.5545 12.3822H13.6967L14.4023 11.6766C14.7859 11.2931 14.7859 10.6712 14.4023 10.2877C14.0188 9.90411 13.397 9.90411 13.0134 10.2877L10.6322 12.6689C10.2486 13.0525 10.2486 13.6743 10.6322 14.0579L13.0134 16.4391V16.4404Z" fill="#EF953B"/>
</svg>
