<svg width="27" height="28" viewBox="0 0 27 28" fill="none" xmlns="http://www.w3.org/2000/svg">
<g clip-path="url(#clip0_2028_575)">
<path d="M20.8872 20.8342L18.5523 12.4188C18.0537 10.6186 16.9673 9.03698 15.466 7.92553C13.9647 6.81408 12.1348 6.23673 10.2675 6.28537C8.40022 6.33401 6.60285 7.00584 5.16145 8.19393C3.72006 9.38202 2.71748 11.0181 2.31329 12.8418L0.507356 20.9689C0.419971 21.3627 0.422102 21.771 0.513593 22.1638C0.605083 22.5566 0.783597 22.9238 1.03596 23.2384C1.28833 23.553 1.60811 23.8069 1.97172 23.9815C2.33532 24.156 2.73346 24.2466 3.13678 24.2467H6.37596C6.58207 25.2618 7.13275 26.1743 7.9347 26.8298C8.73665 27.4853 9.74054 27.8433 10.7763 27.8433C11.812 27.8433 12.8159 27.4853 13.6179 26.8298C14.4198 26.1743 14.9705 25.2618 15.1766 24.2467H18.2928C18.7078 24.2465 19.1171 24.1505 19.4888 23.9661C19.8606 23.7816 20.1847 23.5138 20.4359 23.1835C20.6871 22.8532 20.8586 22.4693 20.9371 22.0618C21.0155 21.6543 20.9978 21.2342 20.8872 20.8342ZM10.7763 26.0428C10.2211 26.0405 9.68013 25.8667 9.22746 25.5452C8.77479 25.2237 8.43251 24.7702 8.24744 24.2467H13.3051C13.1201 24.7702 12.7778 25.2237 12.3251 25.5452C11.8724 25.8667 11.3315 26.0405 10.7763 26.0428ZM19.0067 22.0959C18.9229 22.207 18.8143 22.2969 18.6896 22.3585C18.5648 22.4201 18.4274 22.4517 18.2883 22.4507H3.13678C3.00231 22.4506 2.86956 22.4204 2.74833 22.3622C2.6271 22.304 2.52049 22.2194 2.43636 22.1145C2.35224 22.0096 2.29274 21.8871 2.26227 21.7561C2.23179 21.6252 2.23112 21.489 2.2603 21.3578L4.06623 13.2306C4.38445 11.7994 5.17198 10.5155 6.30363 9.58325C7.43527 8.65096 8.84609 8.12371 10.3118 8.08531C11.7775 8.04691 13.214 8.49958 14.3929 9.37134C15.5718 10.2431 16.4255 11.4839 16.8182 12.8966L19.1531 21.312C19.1912 21.445 19.1978 21.5852 19.1724 21.7212C19.147 21.8573 19.0903 21.9856 19.0067 22.0959Z" fill="white"/>
</g>
<circle cx="17.5724" cy="8.4704" r="5" fill="#9376F0"/>
<defs>
<clipPath id="clip0_2028_575">
<rect width="21.5526" height="21.5526" fill="white" transform="translate(0 6.28619)"/>
</clipPath>
</defs>
</svg>
