<svg width="17" height="17" viewBox="0 0 17 17" fill="none" xmlns="http://www.w3.org/2000/svg">
<g clip-path="url(#clip0_4529_1028)">
<path d="M16.4836 6.67166C15.8441 5.62455 15.0375 4.68922 14.0958 3.90279L16.0791 1.91945C16.2082 1.78586 16.2796 1.60693 16.278 1.42121C16.2763 1.23549 16.2018 1.05783 16.0705 0.926498C15.9392 0.795168 15.7615 0.720673 15.5758 0.719059C15.3901 0.717445 15.2112 0.788841 15.0776 0.91787L12.9207 3.07758C11.5836 2.28341 10.0551 1.86949 8.49998 1.88049C4.11468 1.88049 1.61568 4.88241 0.51635 6.67166C0.176724 7.22098 -0.00317383 7.85404 -0.00317383 8.49987C-0.00317383 9.1457 0.176724 9.77876 0.51635 10.3281C1.1558 11.3752 1.9624 12.3105 2.90414 13.097L0.920809 15.0803C0.853155 15.1456 0.799193 15.2238 0.76207 15.3102C0.724947 15.3966 0.705407 15.4896 0.70459 15.5836C0.703772 15.6777 0.721694 15.771 0.75731 15.858C0.792926 15.9451 0.845522 16.0241 0.912029 16.0907C0.978536 16.1572 1.05762 16.2098 1.14467 16.2454C1.23173 16.281 1.325 16.2989 1.41905 16.2981C1.5131 16.2973 1.60605 16.2777 1.69247 16.2406C1.77889 16.2035 1.85705 16.1495 1.92239 16.0819L4.08422 13.92C5.41962 14.7141 6.94637 15.1287 8.49998 15.1192C12.8853 15.1192 15.3843 12.1173 16.4836 10.3281C16.8232 9.77876 17.0031 9.1457 17.0031 8.49987C17.0031 7.85404 16.8232 7.22098 16.4836 6.67166ZM1.72335 9.58645C1.52157 9.25994 1.41469 8.8837 1.41469 8.49987C1.41469 8.11604 1.52157 7.7398 1.72335 7.41329C2.66827 5.87904 4.80389 3.29716 8.49998 3.29716C9.676 3.29057 10.8355 3.57401 11.8759 4.12237L10.45 5.54825C9.76997 5.09676 8.95466 4.89445 8.14243 4.97566C7.3302 5.05687 6.57109 5.41659 5.99389 5.99379C5.4167 6.57098 5.05698 7.3301 4.97577 8.14233C4.89456 8.95455 5.09686 9.76986 5.54835 10.4499L3.9121 12.0862C3.04446 11.3847 2.30407 10.5391 1.72335 9.58645ZM10.625 8.49987C10.625 9.06346 10.4011 9.60396 10.0026 10.0025C9.60406 10.401 9.06356 10.6249 8.49998 10.6249C8.18442 10.6236 7.87324 10.551 7.58977 10.4124L10.4125 7.58966C10.5511 7.87314 10.6238 8.18432 10.625 8.49987ZM6.37498 8.49987C6.37498 7.93629 6.59886 7.39578 6.99737 6.99727C7.39589 6.59875 7.93639 6.37487 8.49998 6.37487C8.81553 6.37609 9.12671 6.44874 9.41018 6.58737L6.58748 9.41008C6.44885 9.12661 6.3762 8.81542 6.37498 8.49987ZM15.2766 9.58645C14.3317 11.1207 12.1961 13.7026 8.49998 13.7026C7.32395 13.7092 6.16443 13.4257 5.12406 12.8774L6.54993 11.4515C7.22998 11.903 8.04529 12.1053 8.85752 12.0241C9.66975 11.9429 10.4289 11.5831 11.0061 11.006C11.5833 10.4288 11.943 9.66964 12.0242 8.85741C12.1054 8.04519 11.9031 7.22988 11.4516 6.54983L13.0878 4.91358C13.9555 5.61503 14.6959 6.46061 15.2766 7.41329C15.4784 7.7398 15.5853 8.11604 15.5853 8.49987C15.5853 8.8837 15.4784 9.25994 15.2766 9.58645Z" fill="url(#paint0_linear_4529_1028)"/>
</g>
<defs>
<linearGradient id="paint0_linear_4529_1028" x1="5.23767" y1="12.6503" x2="18.1528" y2="10.4925" gradientUnits="userSpaceOnUse">
<stop stop-color="#D099F7"/>
<stop offset="1" stop-color="#A05DDB"/>
</linearGradient>
<clipPath id="clip0_4529_1028">
<rect width="17" height="17" fill="white"/>
</clipPath>
</defs>
</svg>
