<svg width="17" height="17" viewBox="0 0 17 17" fill="none" xmlns="http://www.w3.org/2000/svg">
<g clip-path="url(#clip0_2001_461)">
<path d="M16.4836 6.67169C15.385 4.88244 12.886 1.88052 8.49998 1.88052C4.11398 1.88052 1.61498 4.88244 0.51635 6.67169C0.176724 7.22101 -0.00317383 7.85407 -0.00317383 8.4999C-0.00317383 9.14573 0.176724 9.77879 0.51635 10.3281C1.61498 12.1174 4.11398 15.1193 8.49998 15.1193C12.886 15.1193 15.385 12.1174 16.4836 10.3281C16.8232 9.77879 17.0031 9.14573 17.0031 8.4999C17.0031 7.85407 16.8232 7.22101 16.4836 6.67169ZM15.2759 9.58648C14.3324 11.1207 12.1968 13.7026 8.49998 13.7026C4.80318 13.7026 2.66756 11.1207 1.72406 9.58648C1.52228 9.25997 1.4154 8.88373 1.4154 8.4999C1.4154 8.11607 1.52228 7.73983 1.72406 7.41332C2.66756 5.87907 4.80318 3.29719 8.49998 3.29719C12.1968 3.29719 14.3324 5.87623 15.2759 7.41332C15.4777 7.73983 15.5845 8.11607 15.5845 8.4999C15.5845 8.88373 15.4777 9.25997 15.2759 9.58648Z" fill="url(#paint0_linear_2001_461)"/>
<path d="M8.49992 4.95822C7.79944 4.95822 7.1147 5.16594 6.53228 5.5551C5.94985 5.94426 5.49591 6.4974 5.22785 7.14455C4.95979 7.79171 4.88965 8.50382 5.02631 9.19083C5.16296 9.87785 5.50027 10.5089 5.99558 11.0042C6.49089 11.4995 7.12196 11.8368 7.80898 11.9735C8.49599 12.1102 9.2081 12.04 9.85526 11.772C10.5024 11.5039 11.0555 11.05 11.4447 10.4675C11.8339 9.88511 12.0416 9.20036 12.0416 8.49989C12.0405 7.56093 11.667 6.66074 11.003 5.99679C10.3391 5.33285 9.43888 4.95935 8.49992 4.95822ZM8.49992 10.6249C8.07963 10.6249 7.66879 10.5003 7.31933 10.2668C6.96988 10.0333 6.69751 9.70138 6.53668 9.31309C6.37584 8.9248 6.33376 8.49753 6.41575 8.08532C6.49774 7.67311 6.70013 7.29447 6.99732 6.99729C7.2945 6.7001 7.67314 6.49771 8.08535 6.41572C8.49756 6.33373 8.92483 6.37581 9.31312 6.53664C9.70142 6.69748 10.0333 6.96985 10.2668 7.3193C10.5003 7.66876 10.6249 8.0796 10.6249 8.49989C10.6249 9.06347 10.401 9.60398 10.0025 10.0025C9.60401 10.401 9.06351 10.6249 8.49992 10.6249Z" fill="url(#paint1_linear_2001_461)"/>
</g>
<defs>
<linearGradient id="paint0_linear_2001_461" x1="5.23767" y1="12.0195" x2="18.0192" y2="9.50643" gradientUnits="userSpaceOnUse">
<stop stop-color="#D099F7"/>
<stop offset="1" stop-color="#A05DDB"/>
</linearGradient>
<linearGradient id="paint1_linear_2001_461" x1="7.14113" y1="10.383" x2="12.544" y2="9.55607" gradientUnits="userSpaceOnUse">
<stop stop-color="#D099F7"/>
<stop offset="1" stop-color="#A05DDB"/>
</linearGradient>
<clipPath id="clip0_2001_461">
<rect width="17" height="17" fill="white"/>
</clipPath>
</defs>
</svg>
