<svg width="20" height="23" viewBox="0 0 20 23" fill="none" xmlns="http://www.w3.org/2000/svg">
<g clip-path="url(#clip0_4677_1720)">
<path d="M10 11.5925C10.9889 11.5925 11.9556 11.2798 12.7779 10.6939C13.6001 10.108 14.241 9.27534 14.6194 8.30108C14.9978 7.32683 15.0969 6.2548 14.9039 5.22054C14.711 4.18628 14.2348 3.23625 13.5355 2.49059C12.8363 1.74493 11.9454 1.23713 10.9755 1.03141C10.0055 0.825679 9.00021 0.931265 8.08658 1.33481C7.17295 1.73836 6.39206 2.42175 5.84265 3.29855C5.29324 4.17535 5 5.20619 5 6.26071C5.00132 7.67435 5.52853 9.02968 6.46593 10.0293C7.40332 11.0289 8.67432 11.5911 10 11.5925ZM10 2.70621C10.6593 2.70621 11.3037 2.91468 11.8519 3.30525C12.4001 3.69582 12.8273 4.25096 13.0796 4.90046C13.3319 5.54996 13.3979 6.26465 13.2693 6.95416C13.1407 7.64367 12.8232 8.27702 12.357 8.77412C11.8908 9.27123 11.2969 9.60976 10.6503 9.74692C10.0037 9.88407 9.33348 9.81368 8.72439 9.54464C8.1153 9.27561 7.59471 8.82002 7.22844 8.23549C6.86216 7.65095 6.66667 6.96373 6.66667 6.26071C6.66667 5.318 7.01786 4.4139 7.64298 3.7473C8.2681 3.0807 9.11595 2.70621 10 2.70621Z" fill="url(#paint0_linear_4677_1720)"/>
<path d="M10 13.3702C8.01155 13.3726 6.10518 14.216 4.69914 15.7153C3.29309 17.2146 2.50221 19.2475 2.5 21.3679C2.5 21.6035 2.5878 21.8296 2.74408 21.9962C2.90036 22.1629 3.11232 22.2565 3.33333 22.2565C3.55435 22.2565 3.76631 22.1629 3.92259 21.9962C4.07887 21.8296 4.16667 21.6035 4.16667 21.3679C4.16667 19.7181 4.78125 18.1359 5.87521 16.9694C6.96917 15.8029 8.4529 15.1475 10 15.1475C11.5471 15.1475 13.0308 15.8029 14.1248 16.9694C15.2188 18.1359 15.8333 19.7181 15.8333 21.3679C15.8333 21.6035 15.9211 21.8296 16.0774 21.9962C16.2337 22.1629 16.4457 22.2565 16.6667 22.2565C16.8877 22.2565 17.0996 22.1629 17.2559 21.9962C17.4122 21.8296 17.5 21.6035 17.5 21.3679C17.4978 19.2475 16.7069 17.2146 15.3009 15.7153C13.8948 14.216 11.9884 13.3726 10 13.3702Z" fill="url(#paint1_linear_4677_1720)"/>
</g>
<defs>
<linearGradient id="paint0_linear_4677_1720" x1="8.08171" y1="9.09564" x2="15.7304" y2="7.99779" gradientUnits="userSpaceOnUse">
<stop stop-color="#D099F7"/>
<stop offset="1" stop-color="#A05DDB"/>
</linearGradient>
<linearGradient id="paint1_linear_4677_1720" x1="7.12256" y1="20.1758" x2="18.0993" y2="17.3398" gradientUnits="userSpaceOnUse">
<stop stop-color="#D099F7"/>
<stop offset="1" stop-color="#A05DDB"/>
</linearGradient>
<clipPath id="clip0_4677_1720">
<rect width="20" height="21.327" fill="white" transform="translate(0 0.928955)"/>
</clipPath>
</defs>
</svg>
